<svg width="100" height="100" viewBox="0 0 100 100" fill="none" xmlns="http://www.w3.org/2000/svg">
<g opacity="0.1">
<circle cx="50" cy="50" r="50" fill="#2F70FE"/>
<circle cx="50" cy="50" r="50" stroke="#2F70FE"/>
</g>
<path d="M31.3333 69.167H69.6667" stroke="black" stroke-miterlimit="10" stroke-linecap="round" stroke-linejoin="round"/>
<path d="M38 60.8335H33V69.1668H38V60.8335Z" stroke="black" stroke-miterlimit="10" stroke-linecap="round" stroke-linejoin="round"/>
<path d="M48 52.5H43V69.1667H48V52.5Z" stroke="black" stroke-miterlimit="10" stroke-linecap="round" stroke-linejoin="round"/>
<path d="M58 55.8335H53V69.1668H58V55.8335Z" stroke="black" stroke-miterlimit="10" stroke-linecap="round" stroke-linejoin="round"/>
<path d="M68 44.167H63V69.167H68V44.167Z" stroke="black" stroke-miterlimit="10" stroke-linecap="round" stroke-linejoin="round"/>
<path d="M35.5 50.8333C36.4205 50.8333 37.1667 50.0871 37.1667 49.1667C37.1667 48.2462 36.4205 47.5 35.5 47.5C34.5795 47.5 33.8333 48.2462 33.8333 49.1667C33.8333 50.0871 34.5795 50.8333 35.5 50.8333Z" stroke="black" stroke-miterlimit="10" stroke-linecap="round" stroke-linejoin="round"/>
<path d="M45.5 42.5003C46.4205 42.5003 47.1667 41.7541 47.1667 40.8337C47.1667 39.9132 46.4205 39.167 45.5 39.167C44.5795 39.167 43.8333 39.9132 43.8333 40.8337C43.8333 41.7541 44.5795 42.5003 45.5 42.5003Z" stroke="black" stroke-miterlimit="10" stroke-linecap="round" stroke-linejoin="round"/>
<path d="M55.5 45.8333C56.4205 45.8333 57.1667 45.0871 57.1667 44.1667C57.1667 43.2462 56.4205 42.5 55.5 42.5C54.5795 42.5 53.8333 43.2462 53.8333 44.1667C53.8333 45.0871 54.5795 45.8333 55.5 45.8333Z" stroke="black" stroke-miterlimit="10" stroke-linecap="round" stroke-linejoin="round"/>
<path d="M65.5 34.1668C66.4205 34.1668 67.1667 33.4206 67.1667 32.5002C67.1667 31.5797 66.4205 30.8335 65.5 30.8335C64.5795 30.8335 63.8333 31.5797 63.8333 32.5002C63.8333 33.4206 64.5795 34.1668 65.5 34.1668Z" stroke="black" stroke-miterlimit="10" stroke-linecap="round" stroke-linejoin="round"/>
<path d="M36.8333 48.1668L44.1667 41.8335" stroke="black" stroke-miterlimit="10" stroke-linecap="round" stroke-linejoin="round"/>
<path d="M47 41.3335L54 43.6668" stroke="black" stroke-miterlimit="10" stroke-linejoin="round"/>
<path d="M64.3333 33.8335L56.6667 42.8335" stroke="black" stroke-miterlimit="10" stroke-linecap="round" stroke-linejoin="round"/>
</svg>
