<svg width="341" height="257" viewBox="0 0 341 257" fill="none" xmlns="http://www.w3.org/2000/svg">
<g style="mix-blend-mode:luminosity">
<path opacity="0.4" d="M234.66 61.4134L231.126 65.8844L211.779 90.3142L208.246 79.2479L115.761 103.455C110.523 104.814 104.988 104.024 100.343 101.257L99.7989 100.936C93.943 97.4282 86.6291 97.4035 80.7484 100.911L47.268 120.845L42.4745 107.482L40.0283 100.664L86.3821 80.9523C92.6828 78.2599 99.8978 78.8033 105.754 82.3603C109.732 85.5468 114.698 87.0536 119.69 86.7078C120.826 86.6337 121.963 86.4608 123.099 86.1644L201.871 66.7984L196.806 55.4357L234.66 61.4134Z" fill="#6457A4"/>
<path opacity="0.4" d="M310.287 -0.00011684L307.337 31.0228L298.354 23.6576L233.906 94.2689C230.249 98.2578 225.174 100.604 219.771 100.809L219.14 100.835C212.318 101.076 206.167 105.033 203.14 111.175L185.884 146.111L174.594 137.503L202.34 95.3565C206.172 89.5473 212.577 86.0734 219.596 85.9993C224.789 86.6074 229.892 85.2135 233.914 82.1955C234.848 81.5018 235.694 80.7178 236.5 79.8717L292.333 19.7292L281.511 12.5254L310.287 -0.00011684Z" fill="white"/>
<path opacity="0.5" d="M150.403 240.474C150.403 240.474 151.514 235.287 145.733 234.768C145.733 234.768 144.72 239.091 150.403 240.474Z" fill="#6457A4"/>
<path d="M150.65 242.401C150.65 242.401 155.048 243.34 155.468 238.424C155.468 238.4 151.786 237.56 150.65 242.401Z" fill="#6457A4"/>
<path d="M150.328 239.783C150.328 239.783 151.564 246.18 150.6 249.367" stroke="#6457A4" stroke-miterlimit="10" stroke-linecap="round" stroke-linejoin="round"/>
<path d="M206.689 232.248C206.689 232.248 201.476 231.26 203.255 225.702C203.255 225.702 207.628 226.468 206.689 232.248Z" fill="#6457A4"/>
<path opacity="0.5" d="M207.307 225.974C207.505 225.752 206.936 224.467 206.838 224.196C205.948 221.38 206.763 217.576 209.284 215.797C209.383 216.958 209.457 218.07 209.729 219.206C210.173 220.984 209.976 221.972 208.987 223.455C208.444 224.344 208.024 225.184 207.307 225.974Z" fill="#6457A4"/>
<path opacity="0.5" d="M206.615 237.56C206.615 237.56 205.503 232.373 211.285 231.854C211.285 231.854 212.323 236.177 206.615 237.56Z" fill="#6457A4"/>
<path d="M206.566 242.351C206.566 242.351 202.168 243.29 201.747 238.374C201.723 238.35 205.404 237.51 206.566 242.351Z" fill="#6457A4"/>
<path d="M208.617 217.576C208.617 217.576 205.676 230.816 206.64 249.317" stroke="#6457A4" stroke-miterlimit="10" stroke-linecap="round" stroke-linejoin="round"/>
<path d="M264.014 198.926C264.014 198.926 266.213 194.084 260.653 192.355C260.653 192.355 258.751 196.357 264.014 198.926Z" fill="#6457A4"/>
<path opacity="0.5" d="M265.249 208.931C265.2 208.708 266.114 208.066 266.262 207.918C267.967 206.386 268.955 203.496 267.967 201.298C267.423 202.039 266.954 202.755 266.287 203.422C265.274 204.435 265.002 205.176 265.076 206.584C265.15 207.374 265.076 208.116 265.249 208.931Z" fill="#6457A4"/>
<path opacity="0.5" d="M266.386 236.523C266.386 236.523 267.498 231.335 261.716 230.816C261.716 230.816 260.703 235.139 266.386 236.523Z" fill="#6457A4"/>
<path d="M266.213 218.243C266.213 218.243 266.089 212.932 260.332 213.797C260.307 213.821 260.357 218.267 266.213 218.243Z" fill="#6457A4"/>
<path d="M266.534 228.222C266.534 228.222 271.748 227.209 269.944 221.676C269.969 221.676 265.595 222.442 266.534 228.222Z" fill="#6457A4"/>
<path d="M266.46 241.042C266.46 241.042 270.858 241.981 271.278 237.066C271.278 237.066 267.597 236.226 266.46 241.042Z" fill="#6457A4"/>
<path d="M263.618 197.593C263.618 197.593 268.412 218.886 265.941 249.318" stroke="#6457A4" stroke-miterlimit="10" stroke-linecap="round" stroke-linejoin="round"/>
<path d="M332.26 198.926C332.26 198.926 330.06 194.084 335.62 192.355C335.595 192.355 337.522 196.357 332.26 198.926Z" fill="#6457A4"/>
<path opacity="0.5" d="M331.024 208.931C331.073 208.708 330.159 208.066 330.011 207.918C328.306 206.386 327.318 203.496 328.306 201.298C328.85 202.039 329.319 202.755 329.986 203.422C330.999 204.435 332.482 205.176 332.408 206.584C332.334 207.374 331.172 208.116 331.024 208.931Z" fill="#6457A4"/>
<path opacity="0.5" d="M334.038 187.959C334.088 187.737 333.174 187.095 333.025 186.947C331.321 185.415 330.332 182.525 331.321 180.327C331.864 181.068 332.334 181.784 333.001 182.451C334.014 183.464 334.286 184.205 334.211 185.613C334.137 186.428 334.211 187.169 334.038 187.959Z" fill="#6457A4"/>
<path opacity="0.5" d="M329.887 236.523C329.887 236.523 328.776 231.335 334.557 230.816C334.557 230.816 335.571 235.139 329.887 236.523Z" fill="#6457A4"/>
<path d="M330.258 218.243C330.258 218.243 330.382 212.932 336.139 213.797C336.139 213.821 336.658 218.267 330.258 218.243Z" fill="#6457A4"/>
<path d="M335.101 178.696C335.101 178.696 333.742 173.558 339.499 172.768C339.499 172.793 341.229 176.893 335.101 178.696Z" fill="#6457A4"/>
<path d="M329.714 228.222C329.714 228.222 324.501 227.209 326.305 221.676C326.305 221.676 330.678 222.442 329.714 228.222Z" fill="#6457A4"/>
<path d="M329.813 241.042C329.813 241.042 325.415 241.981 324.995 237.066C324.97 237.066 328.652 236.226 329.813 241.042Z" fill="#6457A4"/>
<path opacity="0.5" d="M336.929 166.147C336.929 166.147 334.854 161.429 340.265 159.824C340.265 159.824 342.069 163.726 336.929 166.147Z" fill="#6457A4"/>
<path d="M337.35 164.987C337.35 164.987 327.837 218.91 330.308 249.318" stroke="#6457A4" stroke-miterlimit="10" stroke-linecap="round" stroke-linejoin="round"/>
<path opacity="0.2" d="M137.381 206.535H105.853V249.367H137.381V206.535Z" fill="#6457A4"/>
<path opacity="0.5" d="M113.438 201.396L105.853 206.534H137.356L144.942 201.396H113.438Z" fill="#6457A4"/>
<path d="M137.356 249.366L144.942 244.229V201.396L137.356 206.534V249.366Z" fill="#4E4688"/>
<path opacity="0.2" d="M189.714 187.07H158.186V249.367H189.714V187.07Z" fill="#6457A4"/>
<path opacity="0.5" d="M165.772 182.228L158.186 187.07H189.69L197.275 182.228H165.772Z" fill="#6457A4"/>
<path d="M189.69 249.367L197.275 242.451V184.649V182.228L189.69 187.07V249.367Z" fill="#4E4688"/>
<path opacity="0.2" d="M249.831 157.798H218.302V249.243H249.831V157.798Z" fill="#6457A4"/>
<path opacity="0.5" d="M225.888 152.932L218.302 157.798H249.831L257.416 152.932H225.888Z" fill="#6457A4"/>
<path d="M249.831 249.367L257.416 242.45V155.378V152.932L249.831 157.798V249.367Z" fill="#4E4688"/>
<path opacity="0.2" d="M309.206 122.277H277.678V249.367H309.206V122.277Z" fill="#6457A4"/>
<path d="M285.263 117.436L277.678 122.278H309.181L316.767 117.436H285.263Z" fill="#4E4688"/>
<path d="M309.181 249.367L316.767 242.451V119.857V117.436L309.181 122.278V249.367Z" fill="#4E4688"/>
<path d="M293.096 195.444C298.05 195.444 302.065 191.429 302.065 186.477C302.065 181.525 298.05 177.51 293.096 177.51C288.142 177.51 284.127 181.525 284.127 186.477C284.127 191.429 288.142 195.444 293.096 195.444Z" fill="#FCB713"/>
<path d="M292.676 191.738C292.281 191.713 291.935 191.639 291.638 191.565C291.342 191.466 291.07 191.368 290.848 191.244C290.625 191.121 290.427 191.022 290.304 190.898C290.156 190.775 290.057 190.701 289.983 190.651C289.909 190.577 289.859 190.528 289.859 190.478C289.834 190.429 289.859 190.33 289.933 190.231L290.477 189.367C290.526 189.268 290.6 189.219 290.699 189.219C290.798 189.219 290.897 189.268 291.045 189.392C291.268 189.564 291.515 189.737 291.811 189.886C292.108 190.034 292.404 190.133 292.701 190.182V187.415C292.379 187.292 292.034 187.119 291.712 186.971C291.391 186.798 291.07 186.6 290.798 186.353C290.526 186.106 290.304 185.81 290.131 185.489C289.958 185.143 289.884 184.748 289.884 184.278C289.884 183.932 289.933 183.611 290.057 183.315C290.156 183.019 290.329 182.722 290.576 182.5C290.798 182.253 291.095 182.055 291.465 181.907C291.811 181.734 292.231 181.635 292.725 181.611V181.166C292.725 181.092 292.75 181.018 292.8 180.968C292.849 180.919 292.923 180.894 292.997 180.894H293.17C293.244 180.894 293.318 180.919 293.368 180.968C293.417 181.018 293.442 181.092 293.442 181.166V181.635C293.763 181.66 294.06 181.709 294.331 181.808C294.603 181.882 294.85 181.981 295.073 182.08C295.295 182.179 295.468 182.277 295.616 182.376C295.765 182.475 295.863 182.524 295.938 182.574C296.012 182.623 296.061 182.697 296.061 182.796C296.086 182.895 296.061 182.969 296.012 183.043L295.443 183.858C295.32 184.031 295.196 184.056 295.048 183.982C294.85 183.858 294.603 183.71 294.331 183.562C294.06 183.414 293.763 183.29 293.417 183.216V185.81C293.738 185.933 294.06 186.106 294.406 186.279C294.752 186.452 295.073 186.674 295.369 186.921C295.666 187.168 295.888 187.49 296.086 187.835C296.283 188.181 296.382 188.576 296.382 189.046C296.382 189.811 296.135 190.478 295.616 190.997C295.097 191.516 294.381 191.812 293.417 191.862V193.344C293.417 193.418 293.393 193.492 293.343 193.517C293.294 193.566 293.22 193.591 293.145 193.591C293.071 193.591 292.972 193.591 292.849 193.566C292.75 193.541 292.701 193.467 292.701 193.344V191.738H292.676ZM292.676 183.093C292.305 183.142 292.034 183.266 291.861 183.438C291.688 183.636 291.589 183.858 291.589 184.13C291.589 184.427 291.688 184.649 291.861 184.846C292.034 185.019 292.305 185.217 292.676 185.415V183.093ZM293.393 190.182C293.714 190.133 293.986 190.034 294.183 189.861C294.381 189.688 294.48 189.441 294.48 189.12C294.48 188.848 294.406 188.576 294.233 188.329C294.06 188.082 293.788 187.86 293.393 187.662V190.182Z" fill="#F6F7F7"/>
<path opacity="0.9" d="M242.764 185.735C242.764 191.022 239.898 195.295 236.365 195.295C236.241 195.295 236.118 195.295 235.969 195.27H233.152C233.696 195.27 234.215 195.171 234.734 194.974C235.45 194.702 236.118 194.257 236.711 193.64C238.415 191.936 239.527 189.021 239.527 185.711C239.527 182.401 238.415 179.511 236.711 177.782C236.118 177.189 235.45 176.744 234.734 176.448C234.215 176.25 233.696 176.151 233.128 176.151H236.315C236.439 176.151 236.562 176.151 236.686 176.176C240.096 176.472 242.764 180.647 242.764 185.735Z" fill="#F37C20"/>
<path d="M239.577 185.736C239.577 189.046 238.465 191.936 236.76 193.665C236.167 194.258 235.5 194.727 234.783 194.999C234.289 195.197 233.745 195.296 233.202 195.296C233.103 195.296 233.004 195.296 232.905 195.296C229.52 195.073 226.802 190.874 226.802 185.761C226.802 180.648 229.496 176.448 232.905 176.226C233.004 176.226 233.103 176.226 233.202 176.226C233.745 176.226 234.289 176.325 234.808 176.522C235.524 176.794 236.192 177.239 236.785 177.856C238.44 179.511 239.577 182.426 239.577 185.736Z" fill="#FCB713"/>
<path d="M232.881 191.319C232.609 191.294 232.362 191.22 232.139 191.121C231.917 191.022 231.744 190.899 231.571 190.8C231.398 190.701 231.275 190.553 231.176 190.429C231.077 190.306 231.003 190.207 230.953 190.158C230.904 190.084 230.879 190.009 230.855 189.96C230.83 189.911 230.855 189.812 230.904 189.713L231.299 188.799C231.349 188.7 231.398 188.651 231.448 188.651C231.522 188.651 231.596 188.7 231.695 188.849C231.843 189.046 232.041 189.219 232.238 189.367C232.436 189.515 232.658 189.614 232.881 189.664V186.7C232.634 186.551 232.411 186.403 232.164 186.205C231.917 186.033 231.719 185.81 231.522 185.539C231.324 185.292 231.176 184.97 231.052 184.625C230.929 184.279 230.879 183.834 230.879 183.34C230.879 182.97 230.929 182.624 231.003 182.303C231.077 181.981 231.2 181.685 231.373 181.413C231.546 181.166 231.744 180.944 231.991 180.771C232.238 180.598 232.535 180.499 232.881 180.45V179.956C232.881 179.882 232.905 179.808 232.93 179.758C232.979 179.709 233.004 179.684 233.078 179.684H233.202C233.251 179.684 233.301 179.709 233.35 179.758C233.375 179.808 233.4 179.882 233.4 179.956V180.45C233.622 180.475 233.844 180.549 234.042 180.623C234.24 180.697 234.413 180.796 234.586 180.919C234.734 181.018 234.882 181.117 234.981 181.216C235.08 181.315 235.154 181.389 235.203 181.438C235.253 181.487 235.277 181.562 235.302 181.66C235.302 181.759 235.302 181.858 235.277 181.932L234.882 182.821C234.783 182.994 234.709 183.044 234.61 182.945C234.462 182.797 234.289 182.648 234.091 182.5C233.894 182.327 233.671 182.229 233.449 182.13V184.896C233.671 185.044 233.918 185.193 234.165 185.39C234.413 185.588 234.635 185.81 234.833 186.082C235.03 186.354 235.203 186.675 235.351 187.045C235.5 187.416 235.549 187.836 235.549 188.33C235.549 189.17 235.376 189.837 235.006 190.405C234.635 190.948 234.116 191.269 233.449 191.319V192.9C233.449 192.974 233.424 193.048 233.4 193.097C233.35 193.147 233.301 193.171 233.251 193.171C233.202 193.171 233.128 193.147 233.054 193.122C232.979 193.097 232.93 193.023 232.93 192.9V191.319H232.881ZM232.881 182.13C232.634 182.179 232.436 182.303 232.312 182.5C232.189 182.698 232.115 182.945 232.115 183.241C232.115 183.538 232.189 183.785 232.312 183.982C232.436 184.18 232.634 184.378 232.881 184.575V182.13ZM233.4 189.688C233.622 189.639 233.82 189.54 233.968 189.367C234.116 189.194 234.19 188.923 234.19 188.577C234.19 188.28 234.141 188.009 234.017 187.737C233.894 187.465 233.696 187.243 233.424 187.021V189.688H233.4Z" fill="#F6F7F7"/>
<path opacity="0.9" d="M300.706 224.962C300.706 230.248 297.84 234.521 294.307 234.521C294.183 234.521 294.06 234.521 293.911 234.497H291.095C291.638 234.497 292.157 234.398 292.676 234.2C293.392 233.929 294.06 233.484 294.653 232.866C296.358 231.162 297.469 228.247 297.469 224.937C297.469 221.627 296.358 218.737 294.653 217.008C294.06 216.415 293.392 215.971 292.676 215.674C292.157 215.476 291.638 215.378 291.07 215.378H294.257C294.381 215.378 294.504 215.378 294.628 215.402C298.038 215.699 300.706 219.873 300.706 224.962Z" fill="#F37C20"/>
<path d="M297.519 224.963C297.519 228.273 296.407 231.163 294.702 232.892C294.109 233.485 293.442 233.954 292.725 234.226C292.231 234.423 291.688 234.522 291.144 234.522C291.045 234.522 290.946 234.522 290.847 234.522C287.462 234.3 284.744 230.1 284.744 224.987C284.744 219.874 287.438 215.675 290.847 215.452C290.946 215.452 291.045 215.452 291.144 215.452C291.688 215.452 292.231 215.551 292.75 215.749C293.467 216.021 294.134 216.465 294.727 217.083C296.407 218.738 297.519 221.653 297.519 224.963Z" fill="#FCB713"/>
<path d="M290.823 230.545C290.551 230.52 290.304 230.446 290.082 230.347C289.859 230.249 289.686 230.125 289.513 230.026C289.34 229.903 289.217 229.779 289.118 229.656C289.019 229.532 288.945 229.434 288.896 229.384C288.846 229.31 288.822 229.236 288.797 229.187C288.772 229.137 288.797 229.038 288.846 228.94L289.242 228.026C289.291 227.927 289.34 227.877 289.39 227.877C289.464 227.877 289.538 227.927 289.637 228.075C289.785 228.273 289.983 228.445 290.18 228.594C290.378 228.742 290.601 228.841 290.823 228.89V225.926C290.576 225.778 290.353 225.629 290.106 225.432C289.859 225.259 289.662 225.037 289.464 224.765C289.266 224.518 289.118 224.197 288.994 223.851C288.871 223.505 288.822 223.061 288.822 222.567C288.822 222.196 288.871 221.85 288.945 221.529C289.019 221.208 289.143 220.912 289.316 220.64C289.489 220.393 289.686 220.17 289.933 219.998C290.18 219.825 290.477 219.726 290.823 219.676V219.182C290.823 219.108 290.848 219.034 290.872 218.985C290.922 218.935 290.946 218.911 291.021 218.911H291.144C291.194 218.911 291.243 218.935 291.292 218.985C291.317 219.034 291.342 219.108 291.342 219.182V219.676C291.564 219.701 291.787 219.775 291.984 219.849C292.182 219.923 292.355 220.022 292.528 220.146C292.701 220.269 292.824 220.343 292.923 220.442C293.022 220.541 293.096 220.615 293.146 220.664C293.195 220.714 293.22 220.788 293.244 220.887C293.244 220.986 293.244 221.084 293.22 221.159L292.824 222.048C292.725 222.221 292.651 222.27 292.552 222.171C292.404 222.023 292.231 221.875 292.034 221.727C291.836 221.554 291.614 221.455 291.391 221.356V224.123C291.614 224.271 291.861 224.419 292.108 224.617C292.355 224.814 292.577 225.037 292.775 225.308C292.973 225.58 293.145 225.901 293.294 226.272C293.442 226.642 293.491 227.062 293.491 227.556C293.491 228.396 293.318 229.063 292.948 229.631C292.577 230.175 292.058 230.496 291.391 230.545V232.126C291.391 232.2 291.366 232.274 291.342 232.324C291.292 232.373 291.243 232.398 291.194 232.398C291.144 232.398 291.07 232.373 290.996 232.348C290.922 232.324 290.872 232.249 290.872 232.126V230.545H290.823ZM290.823 221.356C290.576 221.406 290.378 221.529 290.255 221.727C290.131 221.924 290.057 222.171 290.057 222.468C290.057 222.764 290.131 223.011 290.255 223.209C290.378 223.406 290.576 223.604 290.823 223.802V221.356ZM291.342 228.89C291.564 228.841 291.762 228.742 291.91 228.569C292.058 228.396 292.132 228.124 292.132 227.779C292.132 227.482 292.083 227.21 291.959 226.939C291.836 226.667 291.638 226.445 291.366 226.222V228.89H291.342Z" fill="#F6F7F7"/>
<path opacity="0.9" d="M179.905 217.576C179.905 223.208 178.373 227.778 176.495 227.778H173.332C173.901 227.778 174.469 227.383 174.938 226.666C175.606 225.703 176.149 224.172 176.495 222.294C176.742 220.886 176.89 219.281 176.89 217.576C176.89 215.872 176.742 214.266 176.495 212.858C176.149 210.981 175.606 209.449 174.938 208.486C174.469 207.794 173.901 207.374 173.332 207.374H176.495C178.373 207.374 179.905 211.944 179.905 217.576Z" fill="#F37C20"/>
<path d="M176.89 217.576C176.89 219.281 176.742 220.886 176.495 222.294C176.149 224.172 175.606 225.703 174.938 226.666C174.469 227.358 173.901 227.778 173.332 227.778H173.308C171.331 227.778 169.725 223.208 169.725 217.576C169.725 211.944 171.331 207.374 173.308 207.374H173.332C173.901 207.374 174.469 207.77 174.938 208.486C175.606 209.449 176.149 210.981 176.495 212.858C176.742 214.266 176.89 215.872 176.89 217.576Z" fill="#FCB713"/>
<path d="M173.135 223.555C172.986 223.53 172.838 223.456 172.715 223.332C172.591 223.233 172.492 223.11 172.393 222.986C172.295 222.863 172.22 222.739 172.171 222.591C172.122 222.468 172.072 222.369 172.047 222.295C172.023 222.221 171.998 222.147 171.998 222.072C171.998 221.998 171.998 221.924 172.023 221.801L172.245 220.837C172.27 220.739 172.295 220.665 172.344 220.665C172.369 220.665 172.418 220.739 172.492 220.862C172.591 221.06 172.69 221.257 172.789 221.406C172.912 221.578 173.011 221.677 173.135 221.727V218.565C173.011 218.417 172.863 218.244 172.739 218.046C172.616 217.849 172.492 217.626 172.369 217.355C172.27 217.083 172.171 216.762 172.097 216.366C172.023 215.996 171.998 215.527 171.998 214.983C171.998 214.588 172.023 214.217 172.072 213.872C172.122 213.526 172.196 213.205 172.27 212.933C172.369 212.661 172.468 212.439 172.616 212.241C172.764 212.068 172.937 211.945 173.11 211.895V211.377C173.11 211.303 173.11 211.229 173.135 211.154C173.159 211.105 173.184 211.056 173.209 211.056H173.283C173.308 211.056 173.332 211.08 173.357 211.154C173.382 211.204 173.382 211.278 173.382 211.377V211.92C173.505 211.945 173.629 212.019 173.728 212.118C173.851 212.217 173.95 212.315 174.024 212.414C174.123 212.538 174.173 212.637 174.247 212.735C174.296 212.834 174.345 212.908 174.37 212.958C174.395 213.007 174.42 213.081 174.42 213.205C174.42 213.303 174.42 213.402 174.395 213.501L174.173 214.44C174.123 214.637 174.074 214.687 174.024 214.563C173.95 214.415 173.851 214.242 173.752 214.069C173.654 213.896 173.53 213.773 173.382 213.674V216.638C173.505 216.786 173.629 216.959 173.777 217.157C173.925 217.355 174.049 217.602 174.148 217.898C174.271 218.194 174.37 218.54 174.444 218.935C174.518 219.331 174.568 219.8 174.568 220.319C174.568 221.208 174.469 221.949 174.271 222.517C174.074 223.11 173.777 223.431 173.407 223.505V225.185C173.407 225.259 173.407 225.333 173.382 225.407C173.357 225.457 173.332 225.481 173.308 225.481C173.283 225.481 173.234 225.457 173.184 225.432C173.135 225.407 173.11 225.333 173.11 225.185V223.555H173.135ZM173.135 213.748C172.986 213.797 172.888 213.946 172.813 214.143C172.739 214.366 172.715 214.613 172.715 214.934C172.715 215.255 172.739 215.527 172.813 215.724C172.888 215.947 172.986 216.144 173.135 216.366V213.748ZM173.431 221.801C173.555 221.751 173.654 221.628 173.752 221.455C173.827 221.257 173.876 220.986 173.876 220.615C173.876 220.294 173.851 219.998 173.777 219.726C173.703 219.454 173.604 219.182 173.431 218.96V221.801Z" fill="#F6F7F7"/>
<path opacity="0.9" d="M238.539 224.295C238.539 229.927 237.007 234.496 235.129 234.496H231.966C232.535 234.496 233.103 234.101 233.572 233.385C234.24 232.421 234.783 230.89 235.129 229.013C235.376 227.605 235.524 225.999 235.524 224.295C235.524 222.59 235.376 220.985 235.129 219.577C234.783 217.699 234.24 216.168 233.572 215.204C233.103 214.513 232.535 214.093 231.966 214.093H235.129C237.032 214.093 238.539 218.663 238.539 224.295Z" fill="#F37C20"/>
<path d="M235.549 224.295C235.549 225.999 235.401 227.605 235.154 229.013C234.808 230.89 234.264 232.421 233.597 233.385C233.128 234.076 232.559 234.496 231.991 234.496H231.966C229.99 234.496 228.384 229.927 228.384 224.295C228.384 218.663 229.99 214.093 231.966 214.093H231.991C232.559 214.093 233.128 214.488 233.597 215.204C234.264 216.168 234.808 217.699 235.154 219.577C235.401 220.985 235.549 222.59 235.549 224.295Z" fill="#FCB713"/>
<path d="M231.793 230.273C231.645 230.248 231.497 230.174 231.373 230.05C231.25 229.951 231.151 229.828 231.052 229.704C230.953 229.581 230.879 229.457 230.83 229.309C230.78 229.186 230.731 229.087 230.706 229.013C230.682 228.939 230.657 228.865 230.657 228.79C230.657 228.716 230.657 228.642 230.682 228.519L230.904 227.555C230.929 227.457 230.953 227.382 231.003 227.382C231.027 227.382 231.077 227.457 231.151 227.58C231.25 227.778 231.349 227.975 231.448 228.124C231.571 228.296 231.67 228.395 231.793 228.445V225.283C231.67 225.135 231.522 224.962 231.398 224.764C231.275 224.567 231.151 224.344 231.027 224.072C230.929 223.801 230.83 223.48 230.756 223.084C230.682 222.714 230.657 222.245 230.657 221.701C230.657 221.306 230.682 220.935 230.731 220.59C230.78 220.244 230.854 219.923 230.929 219.651C231.027 219.379 231.126 219.157 231.275 218.959C231.423 218.786 231.596 218.663 231.769 218.613V218.095C231.769 218.021 231.769 217.946 231.793 217.872C231.818 217.823 231.843 217.774 231.868 217.774H231.942C231.966 217.774 231.991 217.798 232.016 217.872C232.041 217.922 232.041 217.996 232.041 218.095V218.638C232.164 218.663 232.288 218.737 232.386 218.836C232.51 218.935 232.609 219.033 232.683 219.132C232.782 219.256 232.831 219.354 232.905 219.453C232.955 219.552 233.004 219.626 233.029 219.676C233.054 219.725 233.078 219.799 233.078 219.923C233.078 220.021 233.078 220.12 233.054 220.219L232.831 221.158C232.782 221.355 232.732 221.405 232.683 221.281C232.609 221.133 232.51 220.96 232.411 220.787C232.312 220.614 232.189 220.491 232.041 220.392V223.356C232.164 223.504 232.288 223.677 232.436 223.875C232.584 224.072 232.708 224.319 232.806 224.616C232.93 224.912 233.029 225.258 233.103 225.653C233.177 226.049 233.227 226.518 233.227 227.037C233.227 227.926 233.128 228.667 232.93 229.235C232.732 229.828 232.436 230.149 232.065 230.223V231.903C232.065 231.977 232.065 232.051 232.041 232.125C232.016 232.175 231.991 232.199 231.966 232.199C231.942 232.199 231.892 232.175 231.843 232.15C231.793 232.125 231.769 232.051 231.769 231.903V230.273H231.793ZM231.793 220.441C231.645 220.491 231.546 220.639 231.472 220.837C231.398 221.059 231.373 221.306 231.373 221.627C231.373 221.948 231.398 222.22 231.472 222.417C231.546 222.64 231.645 222.837 231.793 223.06V220.441ZM232.09 228.494C232.213 228.445 232.312 228.321 232.411 228.148C232.485 227.951 232.535 227.679 232.535 227.308C232.535 226.987 232.51 226.691 232.436 226.419C232.362 226.147 232.263 225.876 232.09 225.653V228.494Z" fill="#F6F7F7"/>
<path opacity="0.9" d="M299.916 148.806C299.916 154.438 298.384 159.008 296.506 159.008H293.343C293.911 159.008 294.48 158.613 294.949 157.896C295.616 156.933 296.16 155.402 296.506 153.524C296.753 152.116 296.901 150.511 296.901 148.806C296.901 147.102 296.753 145.496 296.506 144.088C296.16 142.211 295.616 140.679 294.949 139.716C294.48 139.024 293.911 138.605 293.343 138.605H296.506C298.384 138.605 299.916 143.174 299.916 148.806Z" fill="#F37C20"/>
<path d="M296.901 148.807C296.901 150.511 296.753 152.117 296.506 153.525C296.16 155.402 295.616 156.934 294.949 157.897C294.48 158.589 293.911 159.009 293.343 159.009H293.318C291.342 159.009 289.736 154.439 289.736 148.807C289.736 143.175 291.342 138.605 293.318 138.605H293.343C293.911 138.605 294.48 139 294.949 139.717C295.616 140.68 296.16 142.211 296.506 144.089C296.753 145.497 296.901 147.102 296.901 148.807Z" fill="#FCB713"/>
<path d="M293.17 154.784C293.022 154.759 292.874 154.685 292.75 154.562C292.627 154.463 292.528 154.34 292.429 154.216C292.33 154.093 292.256 153.969 292.207 153.821C292.157 153.697 292.108 153.599 292.083 153.524C292.058 153.45 292.034 153.376 292.034 153.302C292.034 153.228 292.034 153.154 292.058 153.03L292.281 152.067C292.305 151.968 292.33 151.894 292.38 151.894C292.404 151.894 292.454 151.968 292.528 152.092C292.627 152.289 292.725 152.487 292.824 152.635C292.948 152.808 293.047 152.907 293.17 152.956V149.794C293.047 149.646 292.898 149.473 292.775 149.276C292.651 149.078 292.528 148.856 292.404 148.584C292.305 148.312 292.207 147.991 292.132 147.596C292.058 147.226 292.034 146.756 292.034 146.213C292.034 145.818 292.058 145.447 292.108 145.101C292.157 144.755 292.231 144.434 292.305 144.163C292.404 143.891 292.503 143.669 292.651 143.471C292.8 143.298 292.973 143.174 293.145 143.125V142.606C293.145 142.532 293.145 142.458 293.17 142.384C293.195 142.335 293.22 142.285 293.244 142.285H293.318C293.343 142.285 293.368 142.31 293.393 142.384C293.417 142.433 293.417 142.508 293.417 142.606V143.15C293.541 143.174 293.664 143.249 293.763 143.347C293.887 143.446 293.986 143.545 294.06 143.644C294.158 143.767 294.208 143.866 294.282 143.965C294.331 144.064 294.381 144.138 294.406 144.187C294.43 144.237 294.455 144.311 294.455 144.434C294.455 144.533 294.455 144.632 294.43 144.731L294.208 145.669C294.158 145.867 294.109 145.916 294.06 145.793C293.986 145.645 293.887 145.472 293.788 145.299C293.689 145.126 293.565 145.002 293.417 144.904V147.868C293.541 148.016 293.664 148.189 293.813 148.386C293.961 148.584 294.084 148.831 294.183 149.128C294.307 149.424 294.406 149.77 294.48 150.165C294.554 150.56 294.603 151.03 294.603 151.548C294.603 152.438 294.504 153.179 294.307 153.747C294.109 154.34 293.813 154.661 293.442 154.735V156.414C293.442 156.489 293.442 156.563 293.417 156.637C293.393 156.686 293.368 156.711 293.343 156.711C293.318 156.711 293.269 156.686 293.22 156.661C293.17 156.637 293.145 156.563 293.145 156.414V154.784H293.17ZM293.17 144.978C293.022 145.027 292.923 145.175 292.849 145.373C292.775 145.595 292.75 145.842 292.75 146.163C292.75 146.484 292.775 146.756 292.849 146.954C292.923 147.176 293.022 147.374 293.17 147.596V144.978ZM293.442 153.03C293.565 152.981 293.664 152.857 293.763 152.685C293.837 152.487 293.887 152.215 293.887 151.845C293.887 151.524 293.862 151.227 293.788 150.955C293.714 150.684 293.615 150.412 293.442 150.19V153.03V153.03Z" fill="#F6F7F7"/>
<path d="M121.617 236.004C126.57 236.004 130.586 231.99 130.586 227.037C130.586 222.085 126.57 218.071 121.617 218.071C116.663 218.071 112.647 222.085 112.647 227.037C112.647 231.99 116.663 236.004 121.617 236.004Z" fill="#FCB713"/>
<path d="M121.197 232.3C120.801 232.275 120.455 232.201 120.159 232.127C119.862 232.028 119.591 231.929 119.368 231.806C119.146 231.682 118.948 231.583 118.825 231.46C118.676 231.336 118.578 231.262 118.503 231.213C118.429 231.139 118.38 231.089 118.38 231.04C118.355 230.99 118.38 230.892 118.454 230.793L118.998 229.928C119.047 229.83 119.121 229.78 119.22 229.78C119.319 229.78 119.418 229.83 119.566 229.953C119.788 230.126 120.035 230.299 120.332 230.447C120.628 230.595 120.925 230.694 121.221 230.743V227.977C120.9 227.853 120.554 227.68 120.233 227.532C119.912 227.359 119.591 227.162 119.319 226.915C119.047 226.668 118.825 226.371 118.652 226.05C118.479 225.704 118.405 225.309 118.405 224.84C118.405 224.494 118.454 224.173 118.578 223.876C118.676 223.58 118.849 223.284 119.096 223.061C119.319 222.814 119.615 222.617 119.986 222.468C120.332 222.296 120.752 222.197 121.246 222.172V221.727C121.246 221.653 121.271 221.579 121.32 221.53C121.37 221.48 121.444 221.456 121.518 221.456H121.691C121.765 221.456 121.839 221.48 121.889 221.53C121.938 221.579 121.963 221.653 121.963 221.727V222.197C122.284 222.221 122.58 222.271 122.852 222.37C123.124 222.444 123.371 222.543 123.593 222.641C123.816 222.74 123.989 222.839 124.137 222.938C124.285 223.037 124.384 223.086 124.458 223.135C124.532 223.185 124.582 223.259 124.582 223.358C124.607 223.457 124.582 223.531 124.532 223.605L123.964 224.42C123.841 224.593 123.717 224.617 123.569 224.543C123.371 224.42 123.124 224.272 122.852 224.123C122.58 223.975 122.284 223.852 121.938 223.778V226.371C122.259 226.495 122.58 226.668 122.926 226.841C123.272 227.014 123.593 227.236 123.89 227.483C124.186 227.73 124.409 228.051 124.607 228.397C124.804 228.743 124.903 229.138 124.903 229.607C124.903 230.373 124.656 231.04 124.137 231.559C123.618 232.077 122.902 232.374 121.938 232.423V233.905C121.938 233.979 121.913 234.053 121.864 234.078C121.814 234.128 121.74 234.152 121.666 234.152C121.592 234.152 121.493 234.152 121.37 234.128C121.271 234.103 121.221 234.029 121.221 233.905V232.3H121.197ZM121.197 223.654C120.826 223.704 120.554 223.827 120.381 224C120.208 224.198 120.11 224.42 120.11 224.692C120.11 224.988 120.208 225.21 120.381 225.408C120.554 225.581 120.826 225.778 121.197 225.976V223.654ZM121.913 230.743C122.234 230.694 122.506 230.595 122.704 230.422C122.902 230.249 123 230.002 123 229.681C123 229.41 122.926 229.138 122.753 228.891C122.58 228.644 122.309 228.422 121.913 228.224V230.743Z" fill="#F6F7F7"/>
<path d="M155.245 93.8212C155.023 94.3646 154.702 94.834 154.282 95.2292C153.887 95.6244 153.392 95.9455 152.849 96.1679L146.573 98.638C146.276 98.7615 146.326 99.2061 146.647 99.2555L148.969 99.6261C149.661 99.7249 149.958 100.54 149.513 101.083C149.439 101.182 149.315 101.232 149.192 101.232H149.167L142.792 100.836L141.631 100.762C140.643 100.713 139.654 100.836 138.715 101.158L135.997 102.072L136.516 96.6866L136.59 95.9455L147.166 92.8085C147.734 92.6355 148.327 92.5614 148.92 92.5614L154.455 92.6355C155.073 92.6108 155.468 93.2531 155.245 93.8212Z" fill="#F28389"/>
<path d="M142.792 100.812L141.631 100.738C140.643 100.689 139.654 100.812 138.715 101.133L137.603 101.504C138.073 100.787 138.369 99.9229 138.369 99.0089V96.2176C138.962 96.8352 139.259 98.2926 140 98.6878C140.445 98.9348 140.989 98.9595 141.409 99.2065C141.68 99.3794 141.903 99.6265 142.1 99.8735C142.372 100.17 142.619 100.491 142.792 100.812Z" fill="#F16B6C"/>
<path d="M124.335 183.859L121.518 193.221L120.085 197.963L119.912 198.605L118.009 198.186L117.54 198.062L114.55 197.395L114.649 195.691L115.143 187.737L115.316 184.871L124.335 183.859Z" fill="#F28389"/>
<path d="M123.248 194.258C122.358 195.222 121.963 196.58 120.974 197.445C120.703 197.667 120.406 197.84 120.085 197.988C119.442 198.26 118.701 198.309 118.009 198.186C117.836 198.161 117.688 198.112 117.515 198.087C117.293 198.013 117.07 197.939 116.873 197.84C115.934 197.395 115.193 196.605 114.649 195.716L115.143 187.762C115.39 187.811 115.637 187.91 115.884 188.108C117.021 188.997 117.836 190.331 118.948 191.269C119.146 191.442 120.406 192.43 121.493 193.245C122.383 193.863 123.149 194.357 123.248 194.258Z" fill="#F16B6C"/>
<path d="M37.0385 231.927L27.575 238.77L24.9312 240.672L20.2365 238.547L21.299 237.312L24.7829 233.335L32.2203 224.838L36.7173 231.458L37.0385 231.927Z" fill="#F28389"/>
<path d="M49.8871 175.09L38.9658 199.742L19.9153 191.319L11.1437 187.44L9.09285 186.526L0.123544 182.549L0 182.5L0.8401 180.623L1.72962 178.573L4.02754 173.41L5.38652 170.347L10.9213 157.823L24.5853 163.9L29.6506 166.148L34.2464 168.173L34.8641 168.445L38.8176 170.199L42.7216 171.928L49.1211 174.744L49.3188 174.843L49.8871 175.09Z" fill="#E96924"/>
<path d="M37.0138 231.953L27.5503 238.771C26.7596 238.944 25.9937 239.117 25.203 239.289C23.9923 239.561 22.485 239.734 21.7438 238.721C21.4472 238.326 21.3484 237.807 21.299 237.313L24.7829 233.336C28.2669 233.682 31.9485 233.485 35.0618 232.2C35.1606 232.151 35.2348 232.126 35.3336 232.077L36.3219 232.422L37.0138 231.953Z" fill="#F16B6C"/>
<path d="M25.7713 156.934L30.3177 158.96L29.6753 159.997L25.8207 158.293L23.5475 163.431L22.4356 162.937L24.9559 157.231C25.1042 156.934 25.4748 156.811 25.7713 156.934Z" fill="#A04323"/>
<path d="M40.6707 164.196L38.1504 169.902L37.0385 169.408L39.3117 164.27L37.3103 163.381L35.7537 162.689L36.0255 161.578C36.0255 161.553 36.0255 161.504 36.0255 161.479L37.7304 162.22L40.3742 163.406C40.6707 163.529 40.819 163.9 40.6707 164.196Z" fill="#A04323"/>
<path d="M36.0255 161.578L35.7537 162.69L34.6171 162.171L34.5923 162.146C34.7653 161.776 34.9383 161.405 35.0865 161.035L35.5313 161.232L36.0255 161.455C36.0255 161.504 36.0255 161.529 36.0255 161.578Z" fill="#A04323"/>
<path opacity="0.5" d="M10.8719 157.922L15.7642 172.199C16.0607 173.039 16.6785 173.731 17.4938 174.101L33.1839 181.043C33.9993 181.413 34.9383 181.413 35.7537 181.067L49.7388 175.04" fill="#FCB713"/>
<path d="M19.7176 177.634L19.3223 177.461C18.8034 177.239 18.5563 176.621 18.8034 176.102L19.5447 174.423C19.7671 173.904 20.3848 173.657 20.9037 173.904L21.299 174.077C21.8179 174.299 22.065 174.917 21.8179 175.436L21.0766 177.115C20.8542 177.609 20.2365 177.856 19.7176 177.634Z" fill="#A04323"/>
<path d="M29.6012 182.006L29.2058 181.833C28.6869 181.611 28.4399 180.994 28.6869 180.475L29.4282 178.795C29.6506 178.276 30.2683 178.029 30.7872 178.276L31.1825 178.449C31.7014 178.672 31.9485 179.289 31.7014 179.808L30.9602 181.488C30.7378 182.006 30.1201 182.229 29.6012 182.006Z" fill="#A04323"/>
<path opacity="0.15" d="M34.8641 168.445L1.72961 178.572L4.02753 173.41L28.6869 166.197L29.6506 166.148L34.2464 168.173L34.8641 168.445Z" fill="#F6F7F7"/>
<path d="M10.3035 157.551L0.420015 179.906C0.0493831 180.771 -3.44903e-05 181.685 0.247054 182.525C0.247054 182.549 0.271762 182.599 0.271762 182.623C0.592977 183.612 1.30953 184.451 2.3473 184.896L35.9513 199.791C38.0021 200.705 40.3742 199.766 41.2884 197.716L51.0731 175.608L10.3035 157.551ZM40.5965 196.061C39.6823 198.111 37.3103 199.025 35.2594 198.136L11.1436 187.465H11.1189L9.0681 186.551L3.4592 184.031C2.56968 183.636 1.90254 182.945 1.53191 182.105C1.11186 181.166 1.08715 180.055 1.53191 179.042L10.9213 157.848L49.1211 174.744L49.3188 174.842L49.8871 175.09L40.5965 196.061Z" fill="#A04323"/>
<path opacity="0.15" d="M49.3188 174.843L13.0215 188.058L11.1437 187.416H11.119L9.06812 186.502L3.45922 184.032C2.5697 183.636 1.90256 182.945 1.53193 182.105L38.8175 170.199L42.7215 171.928L49.0964 174.744L49.3188 174.843Z" fill="#F6F7F7"/>
<path d="M134.564 151.574L124.038 186.551C123.742 187.539 122.877 188.256 121.864 188.354L118.874 189.021L114.13 190.133L116.156 161.405L91.7191 169.507C89.1988 170.569 87.2716 172.669 86.3573 175.238L78.0799 196.654L76.1279 201.718C75.0901 204.361 73.3358 206.658 71.0626 208.338C70.9637 208.412 70.8402 208.486 70.7413 208.56L37.0632 231.928L37.0385 231.953L36.3467 232.422L35.3583 232.076L32.2203 230.94L27.9457 229.384L54.9524 200.804C55.669 200.088 56.3114 199.322 56.8303 198.482C56.8797 198.408 56.9291 198.309 56.9785 198.235C57.6704 197.099 58.1646 195.888 58.4858 194.604L61.8215 180.895L62.7357 177.14L66.7138 160.886L66.9362 159.972L99.28 149.03L101.949 148.116L105.778 146.658L105.853 146.634L124.359 139.569C125.249 139.223 126.163 139.075 127.077 139.075C129.771 139.075 132.34 140.508 133.749 142.953C135.207 145.571 135.528 148.684 134.564 151.574Z" fill="#4E4688"/>
<path opacity="0.2" d="M105.853 146.609C105.853 146.609 104.592 157.997 88.1858 164.962C81.2426 167.902 76.1032 171.212 72.0757 174.077L56.9786 198.211C57.6704 197.074 58.1646 195.864 58.4858 194.58L61.8215 180.87L62.7357 177.116L66.7139 160.862L99.2801 149.005L105.778 146.634L105.853 146.609Z" fill="black"/>
<path d="M96.2409 118.523L96.9327 156.391C96.9327 156.391 90.9285 160.689 89.6683 160.54L88.927 160.837L88.3835 161.059C88.3835 161.059 83.7135 163.554 83.4664 163.653L81.292 145.917L77.8328 117.807L76.4244 109.013L78.0799 108.865L78.8953 108.791L83.3429 108.371H83.3676H83.3923L94.2394 107.729L94.4618 107.704H94.5607L95.0795 107.679L95.9691 107.63L97.0068 107.284L98.1929 106.889L98.5141 106.765L99.7001 106.271L100.244 106.049L101.405 105.555L101.973 110.149L96.2409 118.523Z" fill="white"/>
<path d="M96.9327 108.297C96.9327 108.297 96.3644 112.422 96.1914 113.385C96.1667 113.484 96.1667 113.534 96.1667 113.558C96.1667 113.583 96.142 113.583 96.1173 113.608C95.722 113.904 92.8805 114.868 90.7308 115.584C89.3224 116.053 88.2105 116.399 88.2105 116.399L81.0449 109.73C81.0449 109.73 80.3778 109.26 82.8981 109.31C83.0216 109.31 82.7746 108.519 82.824 108.371C82.824 108.346 82.8487 108.346 82.8487 108.346C82.8981 108.346 82.9475 108.346 82.9969 108.346C83.1205 108.346 83.244 108.346 83.3676 108.322C83.8864 108.223 84.3559 107.902 84.7513 107.457C85.369 106.79 85.8384 105.827 86.2091 104.888C86.8021 103.381 87.0739 101.949 87.0739 101.949C87.0739 101.949 87.4198 101.529 87.9634 101.035C89.1247 99.9478 91.2003 98.5151 92.3369 100.516C92.6581 101.084 92.9052 101.899 93.0534 103.06C93.1523 103.875 93.2758 104.567 93.4241 105.185C93.6711 106.222 93.9924 106.963 94.3136 107.457C94.363 107.531 94.4124 107.581 94.4371 107.655C95.5984 109.236 96.9327 108.297 96.9327 108.297Z" fill="#F28389"/>
<path d="M35.7537 162.69L37.3103 163.382L36.8656 164.666C36.8161 164.79 36.7173 164.888 36.5938 164.913C35.9266 165.111 35.3089 164.518 35.4571 163.851L35.7537 162.69Z" fill="#F16B6C"/>
<path d="M42.6721 152.834L41.6591 154.019L40.8931 154.884C40.1765 155.699 39.6329 156.638 39.287 157.651L38.694 159.355L37.7057 162.22L36.0007 161.479C35.976 161.232 35.7042 161.109 35.5066 161.257C35.4819 161.257 35.4819 161.282 35.4572 161.282L34.5923 162.171L30.7625 166.148C30.3671 166.568 29.873 166.889 29.3541 167.111C28.8352 167.334 28.2669 167.457 27.6739 167.457C27.0562 167.457 26.6361 166.839 26.8585 166.247L28.9093 161.109C29.0823 160.689 29.2799 160.318 29.527 159.948C29.6259 159.824 29.7 159.701 29.7988 159.577L30.2189 159.083L36.7667 151.031L42.6721 152.834Z" fill="#F28389"/>
<path d="M94.5607 107.087L90.5825 111.756C89.8166 112.645 88.4576 112.744 87.5681 111.978L83.3676 108.347L83.8864 114.201L88.9518 117.239L91.5462 117.956L93.7453 111.953L94.5607 107.087Z" fill="#F16B6C"/>
<g opacity="0.15">
<path opacity="0.15" d="M84.7018 109.804L91.2002 116.227L88.507 120.525L80.3531 110.224L84.7018 109.804Z" fill="#6457A4"/>
<path opacity="0.15" d="M101.38 105.53L99.1565 113.608L99.0576 114.892L95.4749 118.4L90.9284 115.955H90.9037L90.8049 115.905V115.856L90.9037 115.658L94.5359 107.704L95.0548 107.68L95.9443 107.605L97.0068 107.284L98.1681 106.889L98.4893 106.766L101.38 105.53Z" fill="#6457A4"/>
</g>
<path d="M90.632 115.584L87.8152 120.079L78.8953 108.791L83.3429 108.371H83.3676L90.632 115.584Z" fill="white"/>
<path d="M98.4894 106.765L96.1915 113.41L96.1173 113.632L94.7089 117.733L91.2991 115.93L90.7308 115.633L90.632 115.584L94.2148 107.729L94.3136 107.531C94.363 107.605 94.6101 107.556 94.6595 107.605H94.8325C94.9807 107.605 95.1537 107.605 95.302 107.605C95.8703 107.581 96.4386 107.482 96.9822 107.284L98.1682 106.889L98.4894 106.765Z" fill="white"/>
<path d="M138.394 95.4267V99.5765C138.394 100.49 138.122 101.355 137.628 102.071C137.109 102.862 136.319 103.504 135.38 103.85C131.673 105.184 126.114 108.049 120.678 111.038C114.723 114.323 108.892 117.806 105.803 119.684C104.222 120.647 103.085 122.178 102.665 123.982C99.873 136.061 105.309 148.066 105.309 148.066C105.309 148.066 104.444 149.474 103.085 151.153C101.38 153.278 98.9094 155.822 96.4385 156.538C95.3513 156.859 94.2641 155.995 94.2889 154.859L94.8324 126.057L94.8819 123.71C94.8819 123.685 94.8819 123.66 94.8819 123.66C94.9313 121.24 95.4007 118.844 96.2656 116.596L100.392 105.777L104.271 104.714L138.394 95.4267Z" fill="#6457A4"/>
<path d="M104.271 104.74L94.8324 126.082L94.8818 123.735C94.8818 123.711 94.8818 123.686 94.8818 123.686C94.9313 121.265 95.4007 118.869 96.2655 116.621L100.392 105.802L104.271 104.74Z" fill="#4E4688"/>
<path d="M90.0389 118.795L86.2832 140.088L90.0389 145.003L93.424 139.52L92.3369 118.672L90.0389 118.795Z" fill="#FCB713"/>
<path d="M90.6072 120.426L88.2351 125.811L85.8384 131.171L85.616 131.023L93.3252 122.254L94.3877 121.043L93.6464 122.476L86.9997 135.494L86.6291 135.197L91.0767 130.973L95.5243 126.749L97.1056 125.267L95.8702 127.046L91.6697 133.196L89.5694 136.284L87.4692 139.347L87.1974 139.1L96.6115 132.776L97.3033 132.307L96.7597 132.925L90.6072 139.841L96.5868 132.801L96.735 132.949L87.4198 139.396L86.6044 139.965L87.148 139.149L89.2235 136.062L91.3238 132.974L95.4996 126.799L95.8455 127.095L91.4226 131.319L86.9503 135.543L85.9372 136.506L86.5796 135.271L93.2758 122.303L93.6217 122.525L85.8137 131.196L85.2207 131.838L85.5913 131.047L88.0869 125.737L90.6072 120.426Z" fill="#F6F7F7"/>
<path d="M90.3602 115.732L88.3835 117.832L89.8907 120.203L92.0156 120.08L93.0534 117.14L90.3602 115.732Z" fill="#E96924"/>
<path d="M111.585 201.668C111.659 202.211 111.783 202.705 111.931 203.2C111.98 203.422 112.079 203.644 112.252 203.792C112.4 203.941 112.549 203.965 112.746 204.015C115.094 204.608 117.367 204.731 119.764 204.336C119.541 203.891 119.813 203.471 120.258 203.323C120.703 203.175 121.147 203.298 121.567 203.397C122.358 203.595 123.075 203.842 123.89 204.015C127.992 204.904 131.896 204.855 135.973 203.842C136.986 203.595 137.9 203.2 138.789 202.656C139.012 202.533 139.185 202.384 139.308 202.137C139.432 201.89 139.358 201.545 139.308 201.273C139.21 200.828 139.086 200.384 138.715 200.087C138.468 199.89 138.196 199.84 137.9 199.791C136.319 199.519 134.762 199.741 133.181 199.346C130.734 198.729 128.807 197.123 126.732 195.715C125.447 194.826 124.088 193.961 122.729 193.22C121.864 192.751 121.419 193.146 120.9 193.813C120.381 194.455 120.011 195.172 119.319 195.666C118.479 196.283 117.515 196.407 116.65 195.789C116.156 195.443 115.934 194.826 115.563 194.332C115.316 194.011 114.995 193.64 114.599 193.492C114.081 193.294 113.858 193.442 113.512 193.862C112.895 194.579 112.45 195.419 112.153 196.332C111.56 198.062 111.363 199.815 111.585 201.668Z" fill="#444445"/>
<path d="M132.983 204.41C133.057 204.386 133.131 204.386 133.205 204.361C133.181 204.262 133.156 204.163 133.131 204.064C133.057 204.089 132.983 204.089 132.909 204.114C132.933 204.213 132.958 204.311 132.983 204.41Z" fill="#444445"/>
<path d="M111.56 201.372C111.56 201.446 111.585 201.594 111.61 201.693C111.61 201.792 111.634 201.891 111.659 201.965C111.659 202.039 111.684 202.088 111.684 202.162C111.684 202.212 111.709 202.236 111.709 202.286C111.733 202.36 111.758 202.483 111.758 202.558C111.783 202.632 111.783 202.681 111.807 202.706C111.807 202.755 111.832 202.805 111.832 202.829C111.832 202.854 111.832 202.854 111.832 202.879C111.832 202.903 111.832 202.903 111.857 202.928C111.857 202.953 111.857 202.977 111.882 203.027C111.906 203.076 111.906 203.15 111.931 203.224C111.956 203.299 111.98 203.397 112.03 203.496C112.03 203.521 112.03 203.521 112.055 203.57C112.079 203.62 112.104 203.743 112.129 203.793C114.674 204.682 117.095 204.731 119.739 204.385C119.665 204.064 119.739 203.373 120.11 203.323C120.653 203.224 121.197 203.397 121.666 203.471C122.16 203.521 122.482 203.669 122.926 203.793C122.926 203.793 122.926 203.793 122.951 203.793C123.223 203.867 123.544 203.966 123.816 204.04C125.027 204.336 126.386 204.657 127.596 204.731C129.128 204.805 130.512 204.682 131.945 204.608C132.242 204.583 132.464 204.558 132.662 204.534C132.884 204.509 133.082 204.484 133.205 204.46C134.737 204.213 136.17 203.891 137.603 203.348C137.702 203.323 137.727 203.299 137.776 203.274C137.85 203.249 137.925 203.2 137.974 203.175C138.023 203.15 138.023 203.15 138.073 203.126C138.098 203.101 138.122 203.101 138.147 203.101C138.592 202.829 139.012 202.582 139.333 202.162C139.358 202.138 139.333 202.113 139.358 202.039C139.382 201.965 139.382 201.816 139.382 201.718C139.382 201.693 139.382 201.644 139.382 201.619C139.382 201.594 139.382 201.569 139.382 201.545C139.382 201.421 139.358 201.298 139.333 201.174C139.259 201.224 139.259 201.248 139.185 201.298C138.196 201.94 137.505 202.385 136.244 202.681C134.045 203.224 131.278 203.546 129.054 203.644C127.967 203.694 126.633 203.496 125.867 203.373C124.187 203.101 122.679 202.656 121.345 202.286C120.283 201.989 120.134 201.94 119.195 201.841C118.874 201.816 118.701 201.866 118.232 201.866C116.107 201.866 113.809 201.767 111.684 201.421C111.634 201.372 111.56 201.347 111.56 201.372Z" fill="black"/>
<path d="M111.585 201.693C111.56 201.792 111.61 201.866 111.634 201.965C111.634 201.965 111.634 201.965 111.634 201.99C111.634 202.014 111.659 202.113 111.659 202.163C111.659 202.212 111.684 202.237 111.684 202.286C111.684 202.336 111.709 202.36 111.709 202.41C111.709 202.459 111.733 202.533 111.758 202.583C111.783 202.632 111.783 202.706 111.807 202.731C111.832 202.755 111.807 202.78 111.832 202.805C111.832 202.83 111.832 202.83 111.857 202.854C111.857 202.879 111.857 202.879 111.857 202.904C111.857 202.928 111.857 202.928 111.882 202.953C111.882 202.978 111.882 203.002 111.906 203.027C111.906 203.052 111.906 203.002 111.906 203.052C111.931 203.101 111.931 203.175 111.956 203.249C111.98 203.324 112.005 203.422 112.054 203.521C112.054 203.546 112.054 203.546 112.079 203.595C112.104 203.645 112.129 203.768 112.153 203.818C114.698 204.707 117.12 204.756 119.764 204.41C119.764 204.04 119.714 203.422 120.159 203.324C120.703 203.225 121.197 203.398 121.716 203.472C122.136 203.521 122.531 203.694 122.951 203.793C122.951 203.793 122.951 203.793 122.976 203.793C123.272 203.867 123.544 203.966 123.841 204.04C125.101 204.361 126.361 204.633 127.67 204.756C127.695 204.756 127.745 204.756 127.769 204.756C128.955 204.781 130.166 204.732 131.352 204.657C131.574 204.633 131.797 204.633 132.019 204.608C132.242 204.583 132.513 204.559 132.736 204.534C132.933 204.509 133.106 204.485 133.304 204.46C134.712 204.262 136.047 203.966 137.381 203.472C137.505 203.422 137.603 203.373 137.678 203.348C137.752 203.324 137.801 203.299 137.851 203.274C137.925 203.249 137.999 203.2 138.048 203.175C138.098 203.151 138.098 203.151 138.147 203.126C138.172 203.101 138.172 203.101 138.221 203.101C138.691 202.854 139.135 202.657 139.407 202.163C139.432 202.113 139.407 202.113 139.432 202.039C139.432 201.965 139.457 201.817 139.457 201.718C139.457 201.693 139.457 201.644 139.457 201.619C139.457 201.594 139.481 201.57 139.457 201.57C139.432 201.57 139.58 201.52 139.407 201.545C139.358 201.57 139.877 201.224 139.185 201.743C138.468 202.237 137.678 202.755 136.17 203.101C133.502 203.669 128.782 204.213 126.015 203.744C123.248 203.274 121.839 202.385 119.245 202.237C116.7 202.014 114.081 202.138 111.585 201.693C111.585 201.693 111.61 201.693 111.585 201.693Z" fill="#232323"/>
<path d="M123.939 193.541C124.088 193.64 124.211 193.714 124.359 193.813C124.112 194.257 123.841 194.702 123.593 195.147C123.544 195.221 123.495 195.246 123.421 195.27C123.346 195.295 123.322 195.27 123.272 195.246C123.173 195.147 123.099 195.073 123.173 194.924C123.396 194.455 123.692 194.01 123.939 193.541Z" fill="#232323"/>
<path d="M124.631 195.764C124.582 195.838 124.532 195.863 124.458 195.863C124.384 195.888 124.335 195.863 124.31 195.838C124.211 195.739 124.137 195.665 124.211 195.517C124.434 195.072 124.73 194.653 124.953 194.208C125.101 194.307 125.224 194.381 125.373 194.48C125.15 194.9 124.878 195.344 124.631 195.764Z" fill="#232323"/>
<path d="M125.669 196.406C125.62 196.48 125.57 196.505 125.496 196.505C125.422 196.505 125.397 196.505 125.348 196.456C125.249 196.357 125.175 196.258 125.274 196.134C125.496 195.715 125.768 195.295 126.015 194.875C126.163 194.974 126.287 195.072 126.435 195.171C126.188 195.591 125.916 196.011 125.669 196.406Z" fill="#232323"/>
<path d="M16.0113 238.621C15.9866 238.671 15.8137 238.819 15.8137 238.868C15.8137 238.942 15.7395 238.992 15.7395 239.041C15.7148 239.091 15.7148 239.115 15.6901 239.165C15.6654 239.214 15.6654 239.239 15.6407 239.288C15.616 239.338 15.5913 239.412 15.5666 239.437C15.5419 239.486 15.5172 239.535 15.5172 239.585C15.4925 239.634 15.4925 239.634 15.4925 239.659C15.4678 239.684 15.4678 239.708 15.4678 239.758C15.443 239.782 15.443 239.832 15.4183 239.856C15.4183 239.881 15.4183 239.856 15.3936 239.906C15.3689 239.955 15.3442 240.054 15.3195 240.103C15.2948 240.178 15.2454 240.301 15.2454 240.35C15.2207 240.4 15.2454 240.375 15.2207 240.449C15.196 240.499 15.1712 240.622 15.1465 240.696C16.7526 242.944 18.6305 244.525 21.0767 245.859C21.1755 245.538 21.5461 245.019 21.9168 245.167C22.4603 245.365 22.8063 245.81 23.2263 246.106C23.6464 246.402 23.8935 246.723 24.2641 247.045C24.2641 247.045 24.2641 247.045 24.2641 247.069C24.4865 247.267 24.7336 247.514 24.9806 247.687C26.0678 248.428 27.2539 249.194 28.4893 249.515C30.046 249.91 31.5038 249.811 33.011 249.786C33.3075 249.786 33.5299 249.762 33.7523 249.762C33.9747 249.762 34.1723 249.762 34.3206 249.762C35.8772 249.688 37.3351 249.49 38.8176 249.169C38.9164 249.144 38.9411 249.119 39.0153 249.119C39.0894 249.095 39.1635 249.07 39.2129 249.045C39.2623 249.021 39.2871 249.021 39.3118 249.021C39.3365 249.021 39.3612 248.996 39.3859 248.996C39.8554 248.798 40.2754 248.601 40.6708 248.23C40.6955 248.206 40.6955 248.156 40.6955 248.107C40.7202 248.057 40.7449 247.884 40.7449 247.81C40.7449 247.736 40.7696 247.712 40.7449 247.637C40.7202 247.588 40.7943 247.637 40.7943 247.613C40.053 246.575 41.0908 246.402 39.4353 245.735C38.0022 245.167 35.8772 245.39 33.9994 244.698C32.0968 244.006 30.5401 240.153 29.9224 238.523C29.3047 236.917 30.046 237.683 28.7858 237.732C27.5009 237.782 25.5737 238.745 24.4123 237.707C23.2263 236.67 24.6347 235.484 23.9923 234.323C23.3499 233.162 23.4487 233.113 21.6202 233.805C20.0142 234.373 16.802 236.546 16.0113 238.621Z" fill="#444445"/>
<path d="M34.0734 249.713C34.1476 249.713 34.2217 249.688 34.2958 249.688C34.2958 249.589 34.2711 249.49 34.2711 249.367C34.197 249.367 34.1229 249.392 34.0487 249.392C34.0734 249.49 34.0734 249.614 34.0734 249.713Z" fill="#444445"/>
<path d="M16.1102 238.35C16.0608 238.399 15.9866 238.548 15.9372 238.622C15.8878 238.696 15.8384 238.795 15.8137 238.869C15.789 238.943 15.7643 238.992 15.7395 239.042C15.7148 239.091 15.7148 239.116 15.6901 239.165C15.6654 239.239 15.616 239.363 15.5913 239.412C15.5666 239.486 15.5419 239.536 15.5172 239.56C15.4925 239.61 15.4925 239.659 15.4678 239.684C15.4678 239.709 15.4678 239.709 15.443 239.733C15.443 239.758 15.443 239.758 15.4183 239.783C15.3936 239.807 15.3936 239.832 15.3936 239.881C15.3689 239.931 15.3442 240.005 15.3195 240.079C15.2948 240.153 15.2701 240.252 15.2454 240.351C15.2454 240.376 15.2454 240.376 15.2207 240.425C15.196 240.474 15.1712 240.598 15.1465 240.647C16.7526 242.895 18.6305 244.476 21.0519 245.81C21.1508 245.489 21.5214 244.97 21.892 245.118C22.4356 245.316 22.7816 245.76 23.2016 246.057C23.6217 246.353 23.8688 246.674 24.2394 246.996C24.2394 246.996 24.2394 246.996 24.2394 247.02C24.4618 247.218 24.7089 247.465 24.9559 247.638C26.0431 248.379 27.2292 249.145 28.4646 249.466C30.0212 249.861 31.4791 249.762 32.9863 249.737C33.2828 249.737 33.5052 249.713 33.7276 249.713C33.9499 249.713 34.1476 249.713 34.2959 249.713C35.8525 249.639 37.3103 249.441 38.7929 249.12C38.8917 249.095 38.9164 249.07 38.9906 249.07C39.0647 249.046 39.1388 249.021 39.1882 248.996C39.2376 248.972 39.2623 248.972 39.2871 248.972C39.3118 248.972 39.3365 248.947 39.3612 248.947C39.8306 248.749 40.2507 248.552 40.646 248.181C40.6707 248.157 40.6708 248.107 40.6708 248.058C40.6955 248.008 40.7202 247.835 40.7202 247.761C40.7202 247.712 40.7202 247.687 40.7202 247.638C40.7202 247.613 40.7202 247.588 40.7202 247.564C40.7202 247.44 40.7202 247.317 40.7202 247.193C40.646 247.218 40.646 247.267 40.5472 247.317C39.46 247.786 38.7435 248.132 37.4586 248.28C35.2348 248.527 32.4921 248.799 30.2436 248.749C29.1564 248.725 27.9457 248.181 27.2292 247.835C25.6725 247.07 24.5112 245.909 23.4981 244.945C22.6827 244.18 22.6086 243.908 21.8426 243.29C21.5708 243.068 21.4226 243.019 21.0767 242.747C19.3717 241.487 17.6915 239.956 16.1843 238.399C16.1596 238.399 16.1596 238.301 16.1102 238.35Z" fill="black"/>
<path d="M15.9372 238.621C15.8631 238.695 15.8384 238.769 15.8137 238.868C15.8137 238.868 15.8137 238.868 15.8137 238.893C15.8137 238.918 15.7642 239.016 15.7395 239.041C15.7148 239.091 15.7148 239.115 15.6901 239.165C15.6654 239.214 15.6654 239.239 15.6407 239.288C15.616 239.338 15.5913 239.412 15.5666 239.436C15.5419 239.486 15.5171 239.535 15.5171 239.585C15.4924 239.609 15.4924 239.634 15.4924 239.659C15.4924 239.683 15.4677 239.708 15.4677 239.708C15.4677 239.733 15.4677 239.733 15.443 239.757C15.443 239.782 15.443 239.782 15.4183 239.807C15.4183 239.832 15.3936 239.856 15.3936 239.881C15.3936 239.906 15.3936 239.881 15.3689 239.93C15.3442 239.98 15.3195 240.079 15.2948 240.128C15.2701 240.202 15.2206 240.326 15.2206 240.375C15.1959 240.424 15.2206 240.4 15.1959 240.474C15.1712 240.523 15.1465 240.647 15.1218 240.721C16.7279 242.969 18.6057 244.55 21.0272 245.883C21.2249 245.562 21.4473 245.044 21.892 245.192C22.4109 245.389 22.7568 245.809 23.2016 246.155C23.5475 246.427 23.8687 246.773 24.1899 247.069C24.1899 247.069 24.1899 247.069 24.2146 247.094C24.4617 247.291 24.6841 247.538 24.9312 247.711C26.0431 248.502 27.2044 249.119 28.4893 249.589C28.514 249.589 28.5634 249.613 28.5881 249.613C29.8236 249.836 31.059 249.91 32.3191 249.86C32.5415 249.86 32.7886 249.811 33.011 249.786C33.2334 249.762 33.5299 249.762 33.7275 249.762C33.9499 249.762 34.1229 249.762 34.2958 249.762C35.7043 249.687 37.0632 249.515 38.4469 249.243C38.5705 249.218 38.6693 249.193 38.7681 249.169C38.867 249.144 38.8917 249.119 38.9658 249.119C39.0399 249.095 39.1141 249.07 39.1635 249.045C39.2129 249.021 39.2129 249.021 39.2623 249.021C39.287 248.996 39.3117 248.996 39.3364 248.996C39.8306 248.823 40.2507 248.65 40.5966 248.255C40.6213 248.23 40.6213 248.181 40.6213 248.131C40.646 248.082 40.6707 247.909 40.6707 247.86C40.6707 247.81 40.6707 247.785 40.6707 247.736C40.6707 247.687 40.6954 247.711 40.6707 247.662C40.646 247.637 40.7943 247.662 40.646 247.613C40.5966 247.588 41.0661 247.464 40.2754 247.835C39.4847 248.205 38.6446 248.576 37.1374 248.699C34.4688 248.922 29.8236 249.366 27.2538 248.131C24.6841 246.896 23.7699 245.167 21.6449 243.611C19.6682 242.129 17.7409 240.4 15.9372 238.621Z" fill="#232323"/>
<path d="M30.4165 238.843C30.4659 238.967 30.5154 239.09 30.5401 239.238C30.0953 239.485 29.6258 239.732 29.2058 239.955C29.1317 240.004 29.0823 240.004 29.0081 239.979C28.934 239.955 28.9093 239.93 28.9093 239.881C28.8846 239.732 28.9093 239.658 29.0575 239.584C29.5023 239.337 29.9718 239.09 30.4165 238.843Z" fill="#232323"/>
<path d="M29.5765 240.869C29.5023 240.919 29.4529 240.919 29.3788 240.894C29.3047 240.869 29.28 240.869 29.28 240.795C29.28 240.647 29.28 240.573 29.4035 240.499C29.8236 240.252 30.293 240.029 30.7131 239.782C30.7625 239.906 30.8119 240.029 30.8366 240.153C30.4413 240.4 29.9965 240.647 29.5765 240.869Z" fill="#232323"/>
<path d="M29.9718 241.808C29.8977 241.857 29.8482 241.857 29.7741 241.832C29.7 241.808 29.6753 241.808 29.6753 241.734C29.6506 241.585 29.6753 241.511 29.7988 241.437C30.1942 241.19 30.6389 240.943 31.059 240.721C31.1084 240.844 31.1578 240.968 31.2072 241.091C30.8119 241.314 30.3671 241.561 29.9718 241.808Z" fill="#232323"/>
<path opacity="0.07" d="M78.0058 257H15.8137C11.539 257 8.05508 253.517 8.05508 249.244C8.05508 244.97 11.539 241.487 15.8137 241.487H78.0058C82.2804 241.487 85.7643 244.97 85.7643 249.244C85.7643 253.542 82.3051 257 78.0058 257Z" fill="#6457A4"/>
<path opacity="0.39" d="M88.927 160.862L88.3834 161.084C88.3834 161.084 86.8268 161.924 85.4678 162.64C86.2091 161.652 86.6538 160.467 86.7032 159.182L88.0869 131.368L88.3834 125.391L88.927 160.862Z" fill="#C9BDA3"/>
<path d="M88.1858 129.491L88.087 131.368L86.7033 159.182C86.6291 160.442 86.1844 161.652 85.4678 162.64C84.8748 163.431 84.1088 164.073 83.2193 164.518C77.2892 167.383 71.2355 169.977 66.4667 171.928C64.0453 172.916 61.9697 173.731 60.4131 174.324C59.1529 174.794 57.8928 173.657 58.2387 172.373L68.1222 134.777L68.6658 132.677C68.74 132.406 68.4187 132.233 68.2211 132.406L41.6591 155.6L40.6954 155.205L36.4208 153.427C36.0502 153.279 35.8031 153.007 35.6548 152.686C35.4571 152.216 35.4819 151.648 35.8278 151.204L65.2313 113.262C66.2938 111.903 67.801 110.94 69.4812 110.57L76.4244 109.038L85.9867 122.105C87.5187 124.23 88.3093 126.823 88.1858 129.491Z" fill="#6457A4"/>
<path d="M88.1858 129.491L88.087 131.368L69.4812 110.57L76.4244 109.038L85.9867 122.105C87.5187 124.23 88.3094 126.823 88.1858 129.491Z" fill="#4E4688"/>
<path opacity="0.2" d="M68.0975 134.728L66.442 171.904C64.0205 172.892 61.945 173.707 60.3884 174.3C59.1282 174.769 57.8681 173.633 58.214 172.348L68.0975 134.728Z" fill="black"/>
<path opacity="0.2" d="M120.678 111.063C114.723 114.349 108.892 117.832 105.803 119.709C104.222 120.672 103.085 122.204 102.665 124.007C99.873 136.086 105.309 148.091 105.309 148.091C105.309 148.091 104.444 149.499 103.085 151.179C99.9224 147.893 99.3294 137.346 99.3294 129.935C99.3294 125.292 101.899 121.018 106.026 118.82L120.678 111.063Z" fill="black"/>
<path d="M91.9909 159.602C91.8921 160.639 91.7439 161.677 91.5709 162.714C91.3979 163.752 91.1756 164.764 90.9285 165.802C90.6567 166.815 90.3849 167.827 90.0142 168.815C89.6436 169.803 89.2236 170.767 88.6305 171.631C88.7541 171.384 88.8529 171.162 88.9765 170.94C89.0753 170.693 89.1741 170.47 89.273 170.223C89.3718 169.976 89.4706 169.729 89.5448 169.482C89.6436 169.235 89.7177 168.988 89.7919 168.741C89.9648 168.247 90.1131 167.753 90.2613 167.259C90.3849 166.765 90.5331 166.246 90.6567 165.752C90.9285 164.74 91.1508 163.727 91.3485 162.689C91.4474 162.171 91.5709 161.677 91.6697 161.158C91.7933 160.639 91.8921 160.12 91.9909 159.602Z" fill="#231F20"/>
<path opacity="0.4" d="M116.156 161.405L91.7192 169.507C89.1989 170.569 87.2716 172.669 86.3573 175.238L78.0799 196.654C78.1787 196.21 84.6524 166.914 92.0157 166.123C99.4283 165.357 116.156 161.405 116.156 161.405Z" fill="black"/>
<path opacity="0.2" d="M118.059 189.219L114.155 190.133L116.156 161.405L118.059 189.219Z" fill="black"/>
<path opacity="0.2" d="M71.3838 207.992L71.0378 208.338C70.939 208.412 70.8155 208.486 70.7166 208.56L36.3219 232.446L32.2203 230.94L71.3838 207.992Z" fill="black"/>
<path d="M93.424 105.234C89.866 106.172 87.5928 105.654 86.2091 104.937C86.5303 104.147 86.7527 103.381 86.8762 102.813C87.5433 103.455 88.334 103.949 89.1988 104.295C89.5695 104.443 89.9648 104.542 90.3602 104.616C90.7802 104.69 91.225 104.74 91.6697 104.74C92.2133 104.74 92.7322 104.666 93.2511 104.567C93.3252 104.789 93.3746 105.011 93.424 105.234Z" fill="#F16B6C"/>
<path d="M40.6707 155.156C40.0777 155.897 39.6083 156.761 39.2871 157.651L38.694 159.355C38.3481 158.565 37.9281 157.799 37.4339 157.058C36.8162 156.07 34.963 154.341 35.3336 153.031C35.383 152.859 35.4819 152.71 35.6054 152.611C35.7537 152.933 36.0008 153.204 36.3714 153.353L40.6707 155.156Z" fill="#F16B6C"/>
<path opacity="0.35" d="M80.0566 95.0567L80.4025 96.3659C80.7237 97.5269 81.5638 98.4902 82.6757 98.9349L83.0958 99.0831C83.4664 100.343 84.1583 101.479 85.0478 102.368L97.6246 98.7373C97.674 98.8608 97.8469 98.8855 97.9705 98.8361C98.094 98.762 98.1434 98.6384 98.1929 98.5149C98.2423 98.3914 98.2917 98.2679 98.3411 98.1444C98.4647 97.4281 98.4894 96.6623 98.3905 95.9213L98.0446 92.9818L97.7481 90.5858C97.6246 89.5483 97.3033 88.5849 96.8339 87.7451C95.3266 85.0279 92.3122 83.3729 89.0506 83.7681C86.3326 84.0892 84.1088 85.769 82.9722 88.0415C82.478 89.0296 82.1815 90.1411 82.1568 91.3021C82.1568 91.3268 82.1568 91.3762 82.1568 91.4009V91.5244C82.1568 91.8455 82.1815 92.1419 82.2063 92.4631L82.3298 93.5499L82.3545 93.7228L81.3909 93.5746C80.526 93.4511 79.8342 94.2416 80.0566 95.0567Z" fill="black"/>
<path opacity="0.19" d="M99.7742 85.843C99.7742 85.8677 99.7495 85.9171 99.7495 85.9418C99.7742 85.9171 99.7742 85.8924 99.7742 85.843Z" fill="white"/>
<path d="M97.5998 89.8945C96.9574 90.0921 96.315 90.2403 95.6725 90.3391C95.549 90.3638 95.4254 90.3638 95.3266 90.3885C93.9182 90.5614 92.4604 90.5367 91.052 90.4379C89.8413 90.3638 88.6058 90.2156 87.4692 89.771C85.2948 88.9064 84.5536 89.9192 83.8864 91.8953C83.6393 92.6364 83.2193 93.1551 82.7992 93.6491L82.3545 93.7232L82.3298 93.5503L82.2804 93.1551L82.2062 92.4387C82.1568 92.1176 82.1568 91.7965 82.1568 91.5001V91.3766C82.1568 91.3519 82.1568 91.3025 82.1568 91.2778C82.1815 90.1168 82.478 89.0052 82.9722 87.9925C84.1088 85.7199 86.3326 84.0402 89.0506 83.7191C92.0403 83.3486 94.8571 84.7566 96.4632 87.0785C96.4879 87.1279 96.5126 87.1773 96.562 87.202C96.6609 87.3502 96.7597 87.5231 96.8586 87.6961C97.1798 88.4124 97.4516 89.1287 97.5998 89.8945Z" fill="#F97C15"/>
<path d="M82.7746 93.6491C82.4781 93.9949 82.2063 94.3654 81.9592 94.81C81.5638 95.5758 82.1074 97.3543 82.8981 99.034L82.651 98.9352C81.8851 98.6388 81.2426 98.0706 80.7979 97.379C80.6002 97.0579 80.4519 96.7367 80.3531 96.3662L80.0072 95.057C79.7848 94.2419 80.4766 93.4514 81.3167 93.5749L82.2804 93.7232" fill="#F28389"/>
<path d="M102.912 84.707C102.789 85.0528 102.64 85.3986 102.467 85.7444C101.479 87.6958 99.7495 89.2026 97.5998 89.8943C97.4268 89.1285 97.155 88.4122 96.8091 87.7452C96.7103 87.5723 96.6114 87.4241 96.5126 87.2512C96.4879 87.2018 96.4632 87.1524 96.4138 87.1277C94.8077 84.8058 92.0156 83.3978 89.0011 83.7683C86.2832 84.0894 84.0594 85.7691 82.9228 88.0417C82.4286 89.0297 82.1321 90.1413 82.1074 91.327C82.1074 91.3517 82.1074 91.4011 82.1074 91.4258V91.5493C82.1074 91.8704 82.1321 92.1668 82.1568 92.4879L82.2309 93.2043L82.2803 93.5995L82.3051 93.7724L81.9097 93.723L81.3414 93.6242C80.6743 93.5254 80.106 93.9947 80.0071 94.6123C79.9824 94.7605 79.9824 94.9334 80.0318 95.1063L80.3778 96.4155C80.4766 96.786 80.6249 97.1071 80.8225 97.4282C81.2426 98.1199 81.885 98.6633 82.6757 98.9844L82.9228 99.0832C83.071 99.4043 83.244 99.7502 83.4169 100.071C83.7382 100.664 84.1088 101.356 84.5783 101.85C84.7759 102.072 85.3195 102.739 85.5419 102.838C82.9722 101.627 80.5507 99.9478 78.8952 97.6752C78.7964 97.5517 78.7223 97.4282 78.6234 97.3047C76.9432 94.8346 76.2267 91.5987 77.1903 88.758C77.4127 88.0911 77.7586 87.4241 78.2528 86.9054C79.1423 85.9667 80.4766 85.5468 81.7367 85.201C81.0449 84.0153 81.5638 82.4838 82.4039 81.4217C84.2076 79.1244 87.4939 78.1364 90.2613 79.075C91.052 79.3467 91.7191 79.569 92.3862 78.9515C93.5228 77.8893 94.2147 76.4567 95.376 75.4192C96.735 74.1841 98.5882 73.9865 100.244 74.8017C103.678 76.432 104.024 81.4958 102.912 84.707Z" fill="#F97C15"/>
<path d="M98.3164 98.1687C97.921 100.515 96.4879 102.541 94.4371 103.702C94.2641 103.801 94.0912 103.899 93.9182 103.974C93.3746 104.221 92.8063 104.418 92.1886 104.542C92.0898 104.566 91.9909 104.591 91.8921 104.591C91.7685 104.616 91.6697 104.616 91.5462 104.641C90.7802 104.739 90.0636 104.715 89.3471 104.591C88.5564 104.468 87.7904 104.221 87.0986 103.85C86.5797 103.578 86.0855 103.257 85.6161 102.887C85.4184 102.739 85.2207 102.566 85.0478 102.368C84.3806 101.701 83.8123 100.886 83.417 99.972C83.2934 99.6755 83.1699 99.3791 83.0957 99.058L82.9228 98.9839C82.1074 97.3042 81.5885 95.5257 81.9839 94.7599C82.4286 93.9201 83.0463 93.3766 83.5158 92.6109C83.6641 92.3639 83.7876 92.1169 83.8864 91.8205C84.5536 89.8443 85.2948 88.8316 87.4692 89.6961C88.6058 90.1407 89.8413 90.289 91.052 90.3631C92.5839 90.4619 94.1653 90.4866 95.6972 90.2643C95.8455 90.2396 95.969 90.2149 96.1173 90.1901C96.2408 90.1654 96.3397 90.1407 96.4632 90.116C96.5373 90.116 96.5868 90.0913 96.6609 90.0666C96.6856 90.0666 96.7103 90.0666 96.735 90.0419C96.7844 90.0419 96.8339 90.0172 96.8833 89.9925C96.908 89.9925 96.9574 89.9678 96.9821 89.9678C97.0315 89.9431 97.0809 89.9431 97.1551 89.9184C97.1798 89.9184 97.2292 89.8937 97.2539 89.8937C97.3033 89.869 97.3527 89.869 97.4022 89.8443C97.4763 89.8196 97.5751 89.7949 97.6492 89.7702C97.6987 89.9925 97.7481 90.2396 97.7728 90.4866L97.8963 91.4746L97.921 91.771L97.9457 91.9934L97.9705 92.191L98.0199 92.685L98.0446 92.8826L98.3905 95.8221C98.4646 96.6867 98.4399 97.4524 98.3164 98.1687Z" fill="#F28389"/>
<path d="M95.6726 90.3389C95.8208 90.3142 95.9443 90.2895 96.0926 90.2648C95.9443 90.2895 95.7961 90.3142 95.6726 90.3389Z" fill="#FF8500"/>
<path d="M102.467 85.7447C102.072 87.2515 100.466 89.1288 99.9225 89.7217C99.2059 90.5368 98.4647 91.3767 97.9211 92.2906L97.8964 92.093L97.7234 90.5862C97.6987 90.3392 97.6493 90.1169 97.5998 89.8699C99.7495 89.2029 101.479 87.7208 102.467 85.7447Z" fill="#EA6400"/>
<path d="M85.5172 102.788C82.9475 101.578 80.526 99.8979 78.8705 97.6253C78.8458 97.2054 78.8458 96.7855 78.8952 96.3656C78.9694 95.7727 79.1423 95.1305 79.6118 94.7847C79.7354 94.6859 79.8836 94.6365 80.0319 94.5624C80.0071 94.7106 80.0071 94.8835 80.0566 95.0564L80.4025 96.3656C80.5013 96.7361 80.6496 97.0572 80.8473 97.3783C81.2673 98.07 81.9097 98.6134 82.7004 98.9345L82.9475 99.0333C83.0958 99.3545 83.2687 99.7003 83.4417 100.021C83.7629 100.614 84.1335 101.306 84.603 101.8C84.776 101.998 85.3196 102.689 85.5172 102.788Z" fill="#EA6400"/>
<path d="M86.5303 87.4236C89.6189 87.5965 92.3616 89.6961 95.3019 90.3631C93.8935 90.536 92.4357 90.5113 91.0273 90.4125C89.8166 90.3384 88.5811 90.1902 87.4445 89.7455C85.2701 88.881 84.5289 89.8938 83.8617 91.8699C83.6147 92.6109 83.1946 93.1297 82.7746 93.6237L82.3298 93.6978L81.9345 93.6484C82.058 93.5002 82.1568 93.3273 82.2557 93.1544C82.5522 92.6109 82.7004 91.944 82.7993 91.3264C82.9722 90.1902 83.0958 88.9304 83.9112 88.1647C84.603 87.5471 85.6161 87.3742 86.5303 87.4236Z" fill="#EA6400"/>
<path d="M96.2903 90.5367H96.1667L95.5737 90.512C95.6231 90.4873 95.6725 90.4873 95.722 90.4626C95.9196 90.4132 96.1173 90.4626 96.2903 90.5367Z" fill="#FF8500"/>
<path d="M97.3775 90.5613C97.0315 90.586 96.6609 90.5613 96.315 90.5366H96.2903L97.3775 90.5613Z" fill="#FF8500"/>
<path d="M97.8469 91.5744C95.4996 92.7354 92.5839 92.5624 90.0142 91.8955C88.7541 91.5744 87.4445 91.1298 86.1597 91.4015C85.196 91.6238 84.3806 92.1919 83.5158 92.6612C83.6641 92.4142 83.7876 92.1672 83.8864 91.8708C84.5536 89.8947 85.2948 88.8819 87.4692 89.7465C88.6058 90.1911 89.8413 90.3393 91.052 90.4134C92.5839 90.5122 94.1653 90.5369 95.6973 90.3146C95.8455 90.2899 95.9691 90.2652 96.1173 90.2405C96.2409 90.2158 96.3397 90.1911 96.4632 90.1664C96.5374 90.1664 96.5868 90.1417 96.6609 90.117C96.6856 90.117 96.7103 90.117 96.735 90.0923C96.7844 90.0923 96.8339 90.0676 96.8833 90.0429C96.908 90.0429 96.9574 90.0182 96.9821 90.0182C97.0315 89.9935 97.081 89.9935 97.1551 89.9688C97.1798 89.9688 97.2292 89.9441 97.2539 89.9441C97.3033 89.9194 97.3528 89.9194 97.4022 89.8947C97.4763 89.87 97.5751 89.8453 97.6493 89.8206C97.6987 90.0429 97.7481 90.2899 97.7728 90.5369L97.8469 91.5744Z" fill="#F16B6C"/>
<path d="M315.803 122.03C315.581 122.105 315.334 122.154 315.087 122.203C314.988 122.228 314.889 122.228 314.79 122.253H287.808C277.579 121.117 268.387 119.091 265.299 117.214C262.655 115.608 260.703 113.731 259.418 111.779C257.071 108.198 256.947 104.418 258.701 101.701C259.023 101.182 259.368 100.688 259.739 100.194C259.838 100.071 259.912 99.9473 260.011 99.8238C260.11 99.7003 260.184 99.5768 260.283 99.4533C260.876 98.6629 261.469 97.9712 262.062 97.3537C262.161 97.2549 262.284 97.1314 262.383 97.0326C262.432 96.9832 262.482 96.9338 262.556 96.8844C262.704 96.7361 262.852 96.6126 263.001 96.4644C263.075 96.3903 263.149 96.3409 263.223 96.2668C263.297 96.2174 263.347 96.1433 263.421 96.0939C263.445 96.0692 263.47 96.0445 263.495 96.0198C264.508 95.1552 265.62 94.3401 266.979 93.4014C267.844 91.3265 268.782 89.2022 269.845 87.0779C270.463 85.8428 271.13 84.583 271.822 83.3726C271.846 83.3479 271.871 83.2985 271.871 83.2738C271.945 83.1503 271.995 83.0268 272.069 82.928C272.069 82.9033 272.093 82.9033 272.093 82.8786C272.217 82.6563 272.341 82.4587 272.464 82.2364C272.489 82.2117 272.489 82.1869 272.514 82.1622C272.662 81.9399 272.785 81.7176 272.934 81.4706C272.958 81.4212 273.008 81.3718 273.032 81.3224C275.849 76.8267 279.259 72.8745 283.41 70.5772C283.435 70.5772 283.435 70.5525 283.46 70.5525C283.583 70.4784 283.707 70.429 283.83 70.3549C283.929 70.3055 284.028 70.2561 284.127 70.2067C284.275 70.1326 284.448 70.0585 284.596 69.9844C284.621 69.9844 284.646 69.9597 284.67 69.9597C284.695 69.9597 284.72 69.935 284.744 69.935C286.943 68.9222 288.871 68.3294 290.551 67.9589C290.551 67.9589 290.551 67.9589 290.576 67.9589C290.65 67.9342 290.724 67.9342 290.798 67.9095L292.058 67.6378L292.874 67.6872L292.701 63.0433C292.676 62.3022 292.725 61.5859 292.824 60.8695C293.269 58.103 294.504 51.2112 296.308 50.2232C297.667 49.4821 298.977 49.6304 299.965 50.569C300.089 50.7172 300.212 50.8407 300.336 50.9889C300.805 51.5818 301.151 52.3969 301.349 53.385C301.966 56.5468 303.82 57.6583 306.463 58.0536C308.045 58.3006 308.44 57.0408 309.008 55.7069C309.379 54.793 309.848 53.8543 310.763 53.3109C313.061 51.9029 314.247 55.9786 316.248 56.6456C317.755 57.1396 309.75 63.6114 305.697 66.7979C305.623 66.7979 305.549 66.7979 305.475 66.7979C304.783 66.7979 304.141 67.0943 303.523 67.4154C303.498 67.4154 303.498 67.3907 303.474 67.3907C303.325 67.3413 303.202 67.3166 303.078 67.3166C301.843 66.6991 300.262 66.625 299.298 67.786C299.199 67.9095 299.125 68.033 299.051 68.1565C299.026 68.2059 299.001 68.2553 298.977 68.3047C298.779 68.774 298.754 69.3175 298.977 69.7868C299.273 70.4537 299.916 70.9478 300.682 70.9478C301.25 70.9478 301.695 70.676 302.016 70.2561C301.917 70.676 301.793 71.096 301.695 71.5159C301.423 72.5781 301.2 73.6649 301.027 74.7518C300.953 75.2952 300.855 75.8387 300.805 76.3821C300.78 76.6538 300.731 76.9255 300.706 77.2219C300.682 77.5431 300.682 77.8395 300.682 78.1606C300.682 78.6793 300.583 79.2228 300.558 79.7662C300.509 80.359 300.509 80.9272 300.509 81.52C300.509 81.8658 300.879 82.0881 301.176 82.0881C301.472 82.0881 301.818 81.8411 301.843 81.52C301.892 80.9519 301.917 80.4084 301.966 79.8403C301.991 79.3216 301.991 78.7781 302.065 78.2594C302.09 78.1112 302.139 77.9877 302.164 77.8642C302.189 77.716 302.189 77.5925 302.213 77.4443C302.238 77.1725 302.263 76.8761 302.288 76.6044C302.337 76.061 302.411 75.5175 302.485 74.9741C302.634 73.8872 302.757 72.7757 302.905 71.6888C303.004 70.9725 303.128 70.2808 303.251 69.5892C303.424 70.1573 303.597 70.7007 303.745 71.2689C304.141 72.8498 304.388 74.4801 304.437 76.1104C304.487 77.6913 304.24 79.2969 304.067 80.8778C304.017 81.1989 304.24 81.4953 304.536 81.5941C304.833 81.6682 305.203 81.52 305.302 81.2236C305.648 80.1614 305.772 79.0499 305.846 77.9383C305.945 76.2092 305.796 74.4801 305.426 72.7757C305.228 71.8864 304.981 71.0219 304.635 70.1573C304.857 70.2561 305.08 70.3549 305.327 70.429C305.821 70.5525 306.34 70.5278 306.785 70.3055C316.075 75.4928 319.51 86.5097 321.289 96.3409C321.684 98.5888 322.277 101.553 322.623 104.665C323.364 111.928 322.895 120.03 315.803 122.03Z" fill="white"/>
<path opacity="0.3" d="M315.803 122.03C315.581 122.105 315.334 122.154 315.087 122.203C314.988 122.228 314.889 122.228 314.79 122.253H287.808C277.579 121.117 268.387 119.091 265.299 117.214C262.655 115.608 260.703 113.731 259.418 111.779C257.071 108.198 256.947 104.418 258.701 101.701C259.023 101.182 259.368 100.688 259.739 100.194C259.838 100.071 259.912 99.9473 260.011 99.8238C260.11 99.7003 260.184 99.5768 260.283 99.4533C260.876 98.6629 261.469 97.9712 262.062 97.3537C262.161 97.2549 262.284 97.1314 262.383 97.0326C262.432 96.9832 262.482 96.9338 262.556 96.8844C262.704 96.7361 262.852 96.6126 263.001 96.4644C263.075 96.3903 263.149 96.3409 263.223 96.2668C263.297 96.2174 263.347 96.1433 263.421 96.0939C263.445 96.0692 263.47 96.0445 263.495 96.0198C264.508 95.1552 265.62 94.3401 266.979 93.4014C267.844 91.3265 268.782 89.2022 269.845 87.0779C270.463 85.8428 271.13 84.583 271.822 83.3726C271.846 83.3479 271.871 83.2985 271.871 83.2738C271.945 83.1503 271.995 83.0268 272.069 82.928C272.069 82.9033 272.093 82.9033 272.093 82.8786C272.217 82.6563 272.341 82.4587 272.464 82.2364C272.489 82.2117 272.489 82.1869 272.514 82.1622C272.662 81.9399 272.785 81.7176 272.934 81.4706C272.958 81.4212 273.008 81.3718 273.032 81.3224C275.849 76.8267 279.259 72.8745 283.41 70.5772C283.435 70.5772 283.435 70.5525 283.46 70.5525C283.583 70.4784 283.707 70.429 283.83 70.3549C283.929 70.3055 284.028 70.2561 284.127 70.2067C284.275 70.1326 284.448 70.0585 284.596 69.9844C284.621 69.9844 284.646 69.9597 284.67 69.9597C284.695 69.9597 284.72 69.935 284.744 69.935C286.943 68.9222 288.871 68.3294 290.551 67.9589C290.551 67.9589 290.551 67.9589 290.576 67.9589C290.65 67.9342 290.724 67.9342 290.798 67.9095L292.058 67.6378L292.874 67.6872L292.701 63.0433C292.676 62.3022 292.725 61.5859 292.824 60.8695C293.269 58.103 294.504 51.2112 296.308 50.2232C297.667 49.4821 298.977 49.6304 299.965 50.569C300.089 50.7172 300.212 50.8407 300.336 50.9889C300.805 51.5818 301.151 52.3969 301.349 53.385C301.966 56.5468 303.82 57.6583 306.463 58.0536C308.045 58.3006 308.44 57.0408 309.008 55.7069C309.379 54.793 309.848 53.8543 310.763 53.3109C313.061 51.9029 314.247 55.9786 316.248 56.6456C317.755 57.1396 309.75 63.6114 305.697 66.7979C305.623 66.7979 305.549 66.7979 305.475 66.7979C304.783 66.7979 304.141 67.0943 303.523 67.4154C303.498 67.4154 303.498 67.3907 303.474 67.3907C303.325 67.3413 303.202 67.3166 303.078 67.3166C301.843 66.6991 300.262 66.625 299.298 67.786C299.199 67.9095 299.125 68.033 299.051 68.1565C299.026 68.2059 299.001 68.2553 298.977 68.3047C298.779 68.774 298.754 69.3175 298.977 69.7868C299.273 70.4537 299.916 70.9478 300.682 70.9478C301.25 70.9478 301.695 70.676 302.016 70.2561C301.917 70.676 301.793 71.096 301.695 71.5159C301.423 72.5781 301.2 73.6649 301.027 74.7518C300.953 75.2952 300.855 75.8387 300.805 76.3821C300.78 76.6538 300.731 76.9255 300.706 77.2219C300.682 77.5431 300.682 77.8395 300.682 78.1606C300.682 78.6793 300.583 79.2228 300.558 79.7662C300.509 80.359 300.509 80.9272 300.509 81.52C300.509 81.8658 300.879 82.0881 301.176 82.0881C301.472 82.0881 301.818 81.8411 301.843 81.52C301.892 80.9519 301.917 80.4084 301.966 79.8403C301.991 79.3216 301.991 78.7781 302.065 78.2594C302.09 78.1112 302.139 77.9877 302.164 77.8642C302.189 77.716 302.189 77.5925 302.213 77.4443C302.238 77.1725 302.263 76.8761 302.288 76.6044C302.337 76.061 302.411 75.5175 302.485 74.9741C302.634 73.8872 302.757 72.7757 302.905 71.6888C303.004 70.9725 303.128 70.2808 303.251 69.5892C303.424 70.1573 303.597 70.7007 303.745 71.2689C304.141 72.8498 304.388 74.4801 304.437 76.1104C304.487 77.6913 304.24 79.2969 304.067 80.8778C304.017 81.1989 304.24 81.4953 304.536 81.5941C304.833 81.6682 305.203 81.52 305.302 81.2236C305.648 80.1614 305.772 79.0499 305.846 77.9383C305.945 76.2092 305.796 74.4801 305.426 72.7757C305.228 71.8864 304.981 71.0219 304.635 70.1573C304.857 70.2561 305.08 70.3549 305.327 70.429C305.821 70.5525 306.34 70.5278 306.785 70.3055C316.075 75.4928 319.51 86.5097 321.289 96.3409C321.684 98.5888 322.277 101.553 322.623 104.665C323.364 111.928 322.895 120.03 315.803 122.03Z" fill="#FCB713"/>
<path opacity="0.8" d="M308.984 55.707C308.416 57.0408 308.02 58.3006 306.439 58.0536C303.795 57.6584 301.942 56.5715 301.349 53.385C301.151 52.3722 300.805 51.5818 300.336 50.989C303.968 54.9412 307.081 55.7317 308.984 55.707Z" fill="#FCB713"/>
<path opacity="0.5" d="M321.363 116.373C321.066 118.572 319.139 120.227 317.113 121.165C311.331 123.883 305.055 122.252 298.952 122.252C295.32 122.252 291.416 122.648 287.784 122.252C277.554 121.116 268.362 119.091 265.274 117.213C262.63 115.608 260.678 113.73 259.393 111.779C257.046 108.197 256.922 104.418 258.677 101.701C260.011 99.6504 261.518 97.699 263.371 96.0934C267.769 92.3141 269.425 87.275 272.341 82.4088C275.306 77.4438 279.185 72.4788 284.547 69.9839C284.571 69.9839 284.596 69.9592 284.621 69.9592C284.646 69.9592 284.67 69.9345 284.695 69.9345C285.412 69.6381 288.179 68.5759 290.502 67.9584C290.502 67.9584 290.502 67.9584 290.526 67.9584C290.6 67.9337 290.675 67.909 290.749 67.909C291.193 67.7855 291.614 67.7114 292.009 67.6373C292.305 67.5879 292.577 67.5632 292.824 67.5385C293.318 67.5138 293.689 67.5632 293.862 67.7608C293.911 67.8102 293.936 67.8843 293.936 67.9831C293.936 68.0325 293.936 68.0572 293.936 68.1066C293.837 68.7488 292.8 69.7369 292.429 70.305C290.922 72.627 289.587 75.0724 288.475 77.592C286.746 81.4701 285.486 85.62 284.942 89.8192C284.547 93.0057 283.558 96.1428 282.026 98.9835C280.964 100.96 278.938 102.145 278.073 104.245C276.319 108.469 280.593 109.951 283.509 111.557C286.425 113.162 289.39 114.644 292.552 115.657C297.148 117.114 301.967 117.806 306.76 117.855C308.045 117.88 321.338 116.645 321.363 116.373Z" fill="#FCB713"/>
<g opacity="0.8">
<path opacity="0.8" d="M295.962 105.926C295.27 105.703 294.702 105.431 294.183 105.11C293.689 104.789 293.269 104.493 292.898 104.196C292.552 103.9 292.256 103.604 292.058 103.332C291.861 103.06 291.712 102.863 291.613 102.739C291.515 102.591 291.465 102.467 291.465 102.344C291.441 102.22 291.515 102.097 291.688 101.949L293.071 100.689C293.22 100.541 293.368 100.491 293.541 100.516C293.714 100.541 293.887 100.714 294.084 100.985C294.381 101.405 294.776 101.8 295.196 102.196C295.641 102.591 296.135 102.887 296.654 103.11L297.939 98.1445C297.395 97.7493 296.876 97.3294 296.382 96.8848C295.863 96.4154 295.419 95.9214 295.048 95.3533C294.677 94.7851 294.406 94.1676 294.257 93.5007C294.109 92.809 294.134 92.068 294.356 91.2034C294.504 90.5859 294.752 90.0425 295.097 89.5484C295.443 89.0544 295.863 88.6345 296.382 88.3133C296.901 87.9922 297.519 87.7699 298.235 87.6464C298.952 87.5229 299.743 87.5476 300.632 87.6958L300.83 86.8807C300.855 86.7571 300.929 86.6336 301.052 86.5842C301.176 86.5101 301.299 86.5101 301.423 86.5348L301.744 86.6089C301.868 86.6336 301.991 86.7324 302.041 86.8313C302.115 86.9548 302.115 87.0783 302.09 87.2018L301.868 88.0416C302.411 88.2392 302.905 88.4616 303.375 88.7333C303.844 89.005 304.24 89.2767 304.586 89.5484C304.932 89.8201 305.203 90.0919 305.426 90.3142C305.648 90.5365 305.796 90.7094 305.895 90.8329C306.019 90.9564 306.068 91.1046 306.044 91.2775C306.019 91.4504 305.945 91.5986 305.846 91.7221L304.437 92.9325C304.141 93.1795 303.894 93.1795 303.671 92.9572C303.375 92.6361 303.029 92.2656 302.609 91.8704C302.189 91.4751 301.695 91.1293 301.151 90.8329L299.94 95.4768C300.435 95.8473 300.953 96.2919 301.497 96.7613C302.041 97.2306 302.51 97.774 302.905 98.3669C303.301 98.9597 303.597 99.6019 303.795 100.318C303.993 101.035 303.968 101.8 303.746 102.616C303.375 103.999 302.634 105.036 301.497 105.728C300.36 106.42 298.903 106.592 297.173 106.247L296.481 108.89C296.456 109.013 296.358 109.112 296.234 109.186C296.111 109.236 295.987 109.26 295.839 109.211C295.69 109.161 295.518 109.112 295.345 109.013C295.172 108.914 295.122 108.766 295.172 108.544L295.962 105.926ZM299.94 90.5118C299.273 90.4377 298.73 90.5118 298.334 90.7835C297.914 91.0305 297.667 91.401 297.519 91.8951C297.395 92.4138 297.445 92.8584 297.667 93.2783C297.914 93.6983 298.31 94.1429 298.853 94.6616L299.94 90.5118ZM297.964 103.505C298.557 103.579 299.076 103.529 299.52 103.307C299.965 103.085 300.262 102.714 300.41 102.121C300.533 101.627 300.509 101.133 300.311 100.615C300.113 100.096 299.718 99.5772 299.125 99.0338L297.964 103.505Z" fill="#FCB713"/>
</g>
<path opacity="0.8" d="M307.402 67.8109C307.032 67.1686 306.389 66.8228 305.673 66.7734C305.599 66.7734 305.524 66.7734 305.45 66.7734C304.759 66.7734 304.116 67.0698 303.498 67.3909C303.474 67.3909 303.474 67.3662 303.449 67.3662C303.301 67.3168 303.177 67.2921 303.054 67.2921C301.818 66.6746 300.237 66.6005 299.273 67.7615C299.174 67.885 299.1 68.0085 299.026 68.132C299.001 68.1814 298.977 68.2308 298.952 68.2802C298.754 68.7495 298.73 69.2929 298.952 69.7623C299.249 70.4292 299.891 70.9232 300.657 70.9232C301.225 70.9232 301.67 70.6515 301.991 70.2316C301.892 70.6515 301.769 71.0715 301.67 71.4914C301.398 72.5535 301.176 73.6404 301.003 74.7273C300.929 75.2707 300.83 75.8142 300.78 76.3576C300.756 76.6293 300.706 76.901 300.682 77.1974C300.657 77.5186 300.657 77.815 300.657 78.1361C300.657 78.6548 300.558 79.1983 300.533 79.7417C300.484 80.3345 300.484 80.9027 300.484 81.4955C300.484 81.8413 300.855 82.0636 301.151 82.0636C301.448 82.0636 301.793 81.8166 301.818 81.4955C301.868 80.9274 301.892 80.3839 301.942 79.8158C301.966 79.2971 301.966 78.7536 302.041 78.2349C302.065 78.0867 302.115 77.9632 302.139 77.8397C302.164 77.6915 302.164 77.568 302.189 77.4198C302.214 77.148 302.238 76.8516 302.263 76.5799C302.312 76.0365 302.386 75.493 302.461 74.9496C302.609 73.8627 302.732 72.7512 302.881 71.6643C302.98 70.9479 303.103 70.2563 303.227 69.5647C303.4 70.1328 303.572 70.6762 303.721 71.2444C304.116 72.8253 304.363 74.4556 304.413 76.0859C304.462 77.6668 304.215 79.2724 304.042 80.8533C303.993 81.1744 304.215 81.4708 304.511 81.5696C304.808 81.6437 305.179 81.4955 305.277 81.1991C305.623 80.1369 305.747 79.0254 305.821 77.9138C305.92 76.1847 305.772 74.4556 305.401 72.7512C305.203 71.8619 304.956 70.9974 304.61 70.1328C304.833 70.2316 305.055 70.3304 305.302 70.4045C305.796 70.528 306.315 70.5033 306.76 70.281C306.958 70.1822 307.131 70.0587 307.279 69.8858C307.724 69.3424 307.773 68.4531 307.402 67.8109ZM304.857 68.1814C305.154 68.1567 305.426 68.2061 305.623 68.2802C305.673 68.3049 305.722 68.3296 305.772 68.3543C305.796 68.379 305.821 68.379 305.846 68.4037C305.846 68.4037 305.821 68.4037 305.796 68.379C305.821 68.4037 305.87 68.4284 305.895 68.4531C305.846 68.4284 305.994 68.6013 305.969 68.5519C305.994 68.5766 305.994 68.626 306.019 68.6754C306.019 68.6754 306.019 68.7001 306.019 68.7248C306.019 68.7248 306.019 68.7989 306.019 68.8236V68.8483C305.994 68.8483 305.969 68.873 305.969 68.873C305.969 68.873 305.969 68.873 305.994 68.873C305.969 68.873 305.92 68.873 305.92 68.873C305.895 68.873 305.895 68.873 305.895 68.873H305.87C305.821 68.873 305.747 68.8483 305.697 68.8483C305.673 68.8483 305.599 68.8236 305.599 68.8236C305.549 68.7989 305.5 68.7989 305.45 68.7742C305.352 68.7248 305.228 68.6754 305.129 68.626C304.931 68.5025 304.734 68.379 304.536 68.2308C304.61 68.2061 304.734 68.1814 304.857 68.1814Z" fill="#FCB713"/>
<g opacity="0.5">
<g opacity="0.6">
<g opacity="0.6">
<path opacity="0.6" d="M154.134 154.832C154.158 156.265 154.208 157.722 154.232 159.155L154.307 163.478C154.307 163.577 154.232 163.651 154.158 163.651C154.059 163.651 153.985 163.577 153.985 163.503L154.059 159.18C154.084 157.722 154.109 156.29 154.134 154.832Z" fill="#231F20"/>
<path opacity="0.6" d="M154.405 172.123L154.455 176.446L154.479 180.769C154.479 180.942 154.331 181.115 154.158 181.115C153.985 181.115 153.812 180.966 153.812 180.793L153.837 176.471L153.886 172.148C153.886 172 154.01 171.876 154.158 171.876C154.282 171.876 154.405 172 154.405 172.123Z" fill="#231F20"/>
<path opacity="0.6" d="M154.504 189.415C154.504 192.305 154.504 195.17 154.504 198.06C154.504 198.258 154.331 198.431 154.134 198.431C153.936 198.431 153.763 198.258 153.763 198.06C153.763 195.17 153.763 192.305 153.763 189.415C153.763 189.217 153.936 189.044 154.134 189.044C154.331 189.069 154.504 189.217 154.504 189.415Z" fill="#231F20"/>
<path opacity="0.6" d="M154.479 206.705L154.455 211.028L154.405 215.351C154.405 215.499 154.282 215.598 154.134 215.598C153.985 215.598 153.886 215.474 153.886 215.351L153.837 211.028L153.812 206.705C153.812 206.533 153.961 206.384 154.134 206.36C154.331 206.384 154.479 206.533 154.479 206.705Z" fill="#231F20"/>
<path opacity="0.6" d="M154.307 223.997L154.232 228.122C154.208 229.505 154.183 230.864 154.158 232.247C154.134 230.864 154.084 229.505 154.084 228.122L154.01 223.997C154.01 223.898 154.084 223.849 154.158 223.849C154.232 223.849 154.307 223.923 154.307 223.997Z" fill="#231F20"/>
</g>
</g>
<g opacity="0.6">
<g opacity="0.6">
<path opacity="0.6" d="M173.999 154.832C174.098 156.265 174.172 157.722 174.222 159.155C174.247 159.872 174.271 160.588 174.296 161.329C174.321 162.045 174.345 162.762 174.345 163.503C174.345 163.676 174.197 163.824 174.024 163.824C173.851 163.824 173.703 163.676 173.703 163.503C173.703 162.786 173.728 162.07 173.752 161.329C173.777 160.613 173.802 159.896 173.827 159.155C173.851 157.722 173.901 156.29 173.999 154.832Z" fill="#231F20"/>
<path opacity="0.6" d="M174.345 172.123L174.321 174.297L174.271 176.446C174.222 177.879 174.172 179.336 174.098 180.769C174.098 180.818 174.049 180.843 174 180.843C173.95 180.843 173.925 180.818 173.925 180.769C173.851 179.336 173.802 177.879 173.752 176.446L173.703 174.297L173.678 172.123C173.678 171.926 173.827 171.777 174.024 171.777C174.197 171.777 174.345 171.926 174.345 172.123Z" fill="#231F20"/>
</g>
</g>
<g opacity="0.6">
<g opacity="0.6">
<path opacity="0.6" d="M191.592 137.542C191.666 138.975 191.691 140.432 191.74 141.865C191.79 143.298 191.815 144.755 191.839 146.188C191.839 146.336 191.74 146.435 191.592 146.435C191.444 146.435 191.345 146.336 191.345 146.188C191.37 144.755 191.394 143.298 191.444 141.865C191.493 140.408 191.518 138.975 191.592 137.542Z" fill="#231F20"/>
<path opacity="0.6" d="M191.938 154.833L191.963 159.156V163.479C191.963 163.676 191.79 163.849 191.592 163.849C191.394 163.849 191.222 163.701 191.222 163.479V159.156L191.246 154.833C191.246 154.635 191.394 154.487 191.592 154.487C191.79 154.487 191.938 154.635 191.938 154.833Z" fill="#231F20"/>
<path opacity="0.6" d="M191.864 172.125C191.839 173.558 191.814 175.015 191.79 176.448L191.666 180.77C191.666 180.795 191.642 180.82 191.617 180.82C191.592 180.82 191.567 180.795 191.567 180.77L191.444 176.448C191.419 175.015 191.37 173.558 191.37 172.125C191.37 171.977 191.493 171.853 191.642 171.853C191.74 171.853 191.839 171.952 191.864 172.125Z" fill="#231F20"/>
</g>
</g>
<g opacity="0.6">
<g opacity="0.6">
<path opacity="0.6" d="M212.026 137.542L212.101 141.865L212.15 146.188C212.15 146.262 212.1 146.311 212.026 146.311C211.952 146.311 211.903 146.262 211.903 146.188L211.952 141.865L212.026 137.542Z" fill="#231F20"/>
<path opacity="0.6" d="M212.249 154.833L212.323 163.479C212.323 163.652 212.199 163.775 212.026 163.775C211.853 163.775 211.73 163.652 211.73 163.479L211.804 154.833C211.804 154.71 211.903 154.611 212.026 154.611C212.15 154.611 212.249 154.71 212.249 154.833Z" fill="#231F20"/>
<path opacity="0.6" d="M212.372 172.125L212.397 180.77C212.397 180.968 212.249 181.116 212.051 181.116C211.853 181.116 211.705 180.968 211.705 180.77L211.73 172.125C211.73 171.952 211.878 171.804 212.051 171.804C212.224 171.779 212.372 171.927 212.372 172.125Z" fill="#231F20"/>
<path opacity="0.6" d="M212.397 189.415L212.372 198.061C212.372 198.258 212.224 198.406 212.026 198.406C211.829 198.406 211.68 198.258 211.68 198.061L211.656 189.415C211.656 189.217 211.829 189.045 212.026 189.045C212.224 189.045 212.397 189.217 212.397 189.415Z" fill="#231F20"/>
<path opacity="0.6" d="M212.348 206.706L212.323 211.029L212.298 215.352C212.298 215.5 212.175 215.599 212.051 215.599C211.903 215.599 211.804 215.475 211.804 215.352L211.779 211.029L211.755 206.706C211.755 206.533 211.903 206.385 212.076 206.385C212.199 206.385 212.348 206.533 212.348 206.706Z" fill="#231F20"/>
<path opacity="0.6" d="M212.199 223.998L212.076 232.643C212.076 232.668 212.051 232.693 212.026 232.693C212.002 232.693 211.977 232.668 211.977 232.643L211.853 223.998C211.853 223.899 211.928 223.825 212.026 223.825C212.125 223.825 212.199 223.899 212.199 223.998Z" fill="#231F20"/>
</g>
</g>
<g opacity="0.6">
<g opacity="0.6">
<path opacity="0.6" d="M228.532 121.832C228.631 123.265 228.68 124.722 228.73 126.155C228.779 127.588 228.804 129.045 228.853 130.478C228.853 130.651 228.73 130.799 228.557 130.799C228.384 130.799 228.235 130.675 228.235 130.502C228.235 130.502 228.235 130.502 228.235 130.478C228.26 129.045 228.309 127.588 228.359 126.155C228.384 124.698 228.433 123.265 228.532 121.832Z" fill="#231F20"/>
<path opacity="0.6" d="M228.878 139.123C228.878 139.84 228.878 140.556 228.853 141.297L228.828 143.471L228.804 145.595C228.779 146.311 228.779 147.028 228.754 147.769C228.754 147.892 228.655 147.991 228.532 147.966C228.408 147.966 228.334 147.868 228.334 147.769C228.309 147.052 228.285 146.336 228.285 145.595L228.235 143.421L228.211 141.248C228.211 140.531 228.211 139.815 228.186 139.074C228.186 138.876 228.334 138.703 228.557 138.703C228.779 138.703 228.878 138.901 228.878 139.123C228.878 139.123 228.878 139.099 228.878 139.123Z" fill="#231F20"/>
</g>
</g>
</g>
<path opacity="0.3" d="M154.134 154.859C155.321 154.859 156.283 153.897 156.283 152.71C156.283 151.523 155.321 150.561 154.134 150.561C152.946 150.561 151.984 151.523 151.984 152.71C151.984 153.897 152.946 154.859 154.134 154.859Z" fill="#6457A4"/>
<path opacity="0.3" d="M174 154.859C175.187 154.859 176.149 153.897 176.149 152.71C176.149 151.523 175.187 150.561 174 150.561C172.812 150.561 171.85 151.523 171.85 152.71C171.85 153.897 172.812 154.859 174 154.859Z" fill="#6457A4"/>
<path opacity="0.3" d="M192.235 138.704C193.422 138.704 194.384 137.742 194.384 136.555C194.384 135.368 193.422 134.406 192.235 134.406C191.047 134.406 190.085 135.368 190.085 136.555C190.085 137.742 191.047 138.704 192.235 138.704Z" fill="#6457A4"/>
<path opacity="0.3" d="M212.1 138.704C213.288 138.704 214.25 137.742 214.25 136.555C214.25 135.368 213.288 134.406 212.1 134.406C210.913 134.406 209.951 135.368 209.951 136.555C209.951 137.742 210.913 138.704 212.1 138.704Z" fill="#6457A4"/>
<path opacity="0.3" d="M228.087 123.661C229.274 123.661 230.237 122.699 230.237 121.512C230.237 120.325 229.274 119.363 228.087 119.363C226.9 119.363 225.937 120.325 225.937 121.512C225.937 122.699 226.9 123.661 228.087 123.661Z" fill="#6457A4"/>
<path opacity="0.4" d="M243.901 114.496L228.087 121.511L212.101 136.555H192.235L174 152.709H154.134" stroke="#6457A4" stroke-width="5" stroke-miterlimit="10" stroke-linecap="round" stroke-linejoin="round"/>
<path opacity="0.4" d="M240.713 114.496H243.901L241.776 116.62" stroke="#6457A4" stroke-width="5" stroke-miterlimit="10" stroke-linecap="round" stroke-linejoin="round"/>
</g>
</svg>
