<svg width="347" height="321" viewBox="0 0 347 321" fill="none" xmlns="http://www.w3.org/2000/svg">
<g clip-path="url(#clip0_20_558)">
<path d="M102.517 28.5918C102.012 28.3273 101.524 28.3397 101.075 28.4804C100.849 28.0934 100.451 27.8309 99.9001 27.7571C94.223 27.0367 88.3536 30.5666 87.0057 36.3058C85.7505 41.6639 89.071 47.5946 94.2379 49.3903C99.4469 51.2081 105.746 48.4943 108.056 43.4745C110.631 37.9491 107.859 31.1776 102.517 28.5918ZM95.6468 45.8855C92.1654 44.7585 89.8477 40.6965 90.7059 37.1177C91.5862 33.4968 95.4371 31.0574 99.0597 31.5063C99.4202 31.5342 99.7607 31.4978 100.039 31.3753C100.183 31.6119 100.413 31.7862 100.749 31.9625C104.262 33.643 106.341 37.9559 104.694 41.7117C103.289 45.004 99.0862 46.9904 95.6468 45.8855Z" fill="#82A9FF" fill-opacity="0.21"/>
<path d="M128.291 145.508C127.377 139.281 126.526 133.033 125.611 126.806C125.256 124.418 121.473 124.583 121.828 126.971C122.742 133.198 123.593 139.446 124.508 145.673C124.821 148.039 128.646 147.896 128.291 145.508Z" fill="#82A9FF" fill-opacity="0.21"/>
<path d="M134.677 132.204C128.05 134.316 121.424 136.428 114.776 138.583C112.445 139.348 113.562 142.942 115.912 142.24C122.538 140.128 129.165 138.016 135.813 135.861C138.144 135.096 137.049 131.46 134.677 132.204Z" fill="#82A9FF" fill-opacity="0.21"/>
<path d="M113.681 126.567C104.221 119.674 97.3065 109.764 94.3721 98.3957C91.6969 87.8614 92.7099 76.6288 96.9679 66.6677C98.8361 69.8495 100.662 73.0093 102.531 76.1912C103.784 78.2983 106.989 76.2725 105.736 74.1653C103.478 70.2958 101.22 66.4262 98.9204 62.5346C98.9867 62.4082 99.0309 62.324 99.0971 62.1976C100.023 60.5342 97.9784 58.7104 96.3867 59.7022C92.4076 62.1819 88.3864 64.6395 84.4072 67.1191C82.3425 68.4001 84.3369 71.6481 86.4237 70.325C88.6167 69.0038 90.7897 67.6184 92.9827 66.2972C84.163 88.6385 91.2546 114.971 111.055 129.327C113.044 130.746 115.67 127.986 113.681 126.567Z" fill="#82A9FF" fill-opacity="0.21"/>
<path d="M78.8189 39.9637C61.6643 42.841 46.4644 53.0279 37.2446 67.8541C35.9499 69.9148 39.3122 71.6776 40.607 69.6169C49.0159 56.0308 63.2697 46.4222 78.9759 43.7523C81.3419 43.3276 81.227 39.561 78.8189 39.9637Z" fill="#82A9FF" fill-opacity="0.21"/>
<path d="M41.8476 89.1215C42.2715 83.9185 38.0781 79.1416 32.9716 78.5593C32.6111 78.5314 32.3126 78.5898 32.0561 78.6702C31.8039 78.538 31.4435 78.5101 31.0388 78.5665C26.0105 79.3681 21.7803 83.7573 22.1195 89.0381C22.4009 94.0201 26.9656 98.2933 31.9346 98.3202C36.9258 98.3049 41.4281 94.112 41.8476 89.1215ZM32.3946 94.4789C29.3319 94.6996 26.4092 92.2004 26.0028 89.1941C25.5366 85.9953 28.1067 82.8306 31.2599 82.3351C31.4522 82.2748 31.6225 82.2567 31.8149 82.1964C31.941 82.2625 32.0891 82.2864 32.2373 82.3104C35.2251 82.6414 37.9399 84.9241 38.1518 88.097C38.2796 91.2259 35.4994 94.2804 32.3946 94.4789Z" fill="#82A9FF" fill-opacity="0.21"/>
<path d="M59.6401 95.6565C59.5775 94.5494 58.6771 93.9162 57.6377 93.8547C55.9194 93.7595 54.2011 93.6644 52.4606 93.6114C51.4212 93.5499 50.6346 94.6415 50.6573 95.6203C50.7198 96.7274 51.6202 97.3606 52.6596 97.4221C54.378 97.5172 56.0963 97.6124 57.8367 97.6654C58.8341 97.7049 59.6849 96.5932 59.6401 95.6565Z" fill="#82A9FF" fill-opacity="0.21"/>
<path d="M73.2806 96.4159C73.5122 95.463 72.8349 94.3021 71.8396 94.1564C70.3358 93.9588 68.8739 93.7832 67.37 93.5857C66.3748 93.4399 65.3446 93.9741 65.1108 95.0333C64.8791 95.9861 65.5565 97.147 66.5517 97.2927C68.0556 97.4903 69.5174 97.6659 71.0213 97.8635C72.0165 98.0092 73.0468 97.475 73.2806 96.4159Z" fill="#82A9FF" fill-opacity="0.21"/>
<path d="M101.631 92.3177C101.292 91.2268 100.279 90.9106 99.2352 91.0617C97.2739 91.43 95.2706 91.7763 93.3092 92.1446C92.3076 92.3178 91.7709 93.6479 92.0501 94.5463C92.3891 95.6371 93.4021 95.9534 94.4458 95.8023C96.4071 95.4339 98.4105 95.0877 100.372 94.7193C101.396 94.5041 101.91 93.2161 101.631 92.3177Z" fill="#82A9FF" fill-opacity="0.21"/>
<path d="M122.147 90.1822C120.723 90.2413 119.299 90.3004 117.897 90.3173C115.431 90.4212 115.63 94.2319 118.054 94.106C119.478 94.0469 120.902 93.9878 122.304 93.9709C124.748 93.9091 124.613 90.0783 122.147 90.1822Z" fill="#82A9FF" fill-opacity="0.21"/>
<path d="M143.184 88.588C141.76 88.6471 140.335 88.7062 138.933 88.7231C136.49 88.7849 136.667 92.6377 139.09 92.5118C140.514 92.4527 141.939 92.3936 143.341 92.3767C145.784 92.3149 145.627 88.5262 143.184 88.588Z" fill="#82A9FF" fill-opacity="0.21"/>
<path d="M84.3804 93.6408C83.7828 92.7366 82.7035 92.5468 81.7595 93.0188C81.2223 93.328 80.643 93.6152 80.1058 93.9244C79.2259 94.3763 78.9437 95.7323 79.4793 96.5503C80.0769 97.4545 81.1562 97.6443 82.1002 97.1724C82.6374 96.8631 83.2166 96.5759 83.7538 96.2667C84.6558 95.7727 84.916 94.4588 84.3804 93.6408Z" fill="#82A9FF" fill-opacity="0.21"/>
<path d="M42.641 130.737C41.1121 125.477 39.5832 120.217 38.0322 115C37.3365 112.647 33.7237 113.815 34.3774 116.145C35.9063 121.405 37.4352 126.665 38.9861 131.883C39.6819 134.235 43.3367 133.09 42.641 130.737Z" fill="#82A9FF" fill-opacity="0.21"/>
<path d="M47.1208 118.207C41.0364 120.818 34.972 123.494 28.8877 126.105C26.6591 127.086 27.7536 130.721 30.0242 129.763C36.1086 127.152 42.173 124.476 48.2573 121.865C50.4859 120.884 49.3914 117.249 47.1208 118.207Z" fill="#82A9FF" fill-opacity="0.21"/>
<path d="M80.2605 144.015C78.2984 139.172 76.3164 134.266 74.3543 129.423C73.4441 127.173 69.8114 128.277 70.6995 130.569C72.6615 135.411 74.6436 140.318 76.6057 145.16C77.5379 147.368 81.1707 146.265 80.2605 144.015Z" fill="#82A9FF" fill-opacity="0.21"/>
<path d="M82.1479 130.501C76.506 133.291 70.8419 136.122 65.242 138.934C63.0533 140.043 65.0698 143.249 67.2584 142.14C72.9004 139.35 78.5645 136.519 84.1644 133.707C86.331 132.641 84.3145 129.435 82.1479 130.501Z" fill="#82A9FF" fill-opacity="0.21"/>
<path d="M59.765 31.7465C57.6882 27.3273 55.6334 22.8659 53.5566 18.4467C52.5182 16.2371 49.3128 18.263 50.3512 20.4726C52.428 24.8918 54.4828 29.3531 56.5596 33.7724C57.556 35.9599 60.7614 33.9341 59.765 31.7465Z" fill="#82A9FF" fill-opacity="0.21"/>
<path d="M60.021 19.0964C55.6577 22.7176 51.2723 26.3809 46.867 29.98C44.9881 31.5196 47.8026 34.1232 49.6394 32.5615C54.0026 28.9404 58.388 25.2771 62.7933 21.678C64.6722 20.1384 61.8998 17.5568 60.021 19.0964Z" fill="#82A9FF" fill-opacity="0.21"/>
<path d="M164.414 88.9754C161.822 89.0132 159.23 89.051 156.638 89.0888C154.217 89.1084 154.352 92.9392 156.795 92.8775C159.387 92.8397 161.979 92.8019 164.571 92.7641C167.034 92.7665 166.877 88.9778 164.414 88.9754Z" fill="#82A9FF" fill-opacity="0.21"/>
<path d="M184.079 91.1207C184.058 90.0357 183.138 89.3383 182.076 89.3189L178.551 89.2971C177.532 89.2998 176.683 90.3052 176.748 91.306C176.769 92.3911 177.689 93.0885 178.75 93.1079C179.918 93.1292 181.108 93.1083 182.275 93.1296C183.317 93.0848 184.166 92.0794 184.079 91.1207Z" fill="#82A9FF" fill-opacity="0.21"/>
<path d="M222.409 93.4362C223.374 87.7113 219.26 82.1702 213.741 80.9423C213.509 80.8743 213.297 80.8704 213.063 80.9087C212.872 80.8626 212.724 80.8387 212.534 80.7927C206.87 80.4554 201.428 84.9076 200.952 90.6202C200.477 96.2264 204.806 101.665 210.377 102.384C215.864 103.058 221.47 98.9064 222.409 93.4362ZM210.56 98.5585C207.026 97.9411 204.297 94.2543 204.731 90.6679C205.255 86.8065 209.022 84.323 212.713 84.5392C212.713 84.5392 212.713 84.5392 212.755 84.5613C212.797 84.5833 212.881 84.6274 212.945 84.6073C216.455 85.3732 219.272 88.8913 218.73 92.5822C218.166 96.3152 214.201 99.1779 210.56 98.5585Z" fill="#82A9FF" fill-opacity="0.21"/>
</g>
<g clip-path="url(#clip1_20_558)">
<path d="M243.848 171.455C243.428 171.212 243.012 171.206 242.626 171.31C242.448 170.973 242.118 170.737 241.653 170.655C236.853 169.846 231.743 172.643 230.398 177.474C229.146 181.984 231.763 187.139 236.092 188.844C240.456 190.569 245.903 188.481 248.04 184.295C250.42 179.688 248.298 173.837 243.848 171.455ZM237.41 185.914C234.491 184.836 232.662 181.303 233.515 178.292C234.388 175.245 237.746 173.305 240.809 173.812C241.114 173.848 241.405 173.829 241.646 173.735C241.76 173.941 241.949 174.097 242.229 174.258C245.156 175.808 246.774 179.545 245.243 182.68C243.936 185.43 240.295 186.972 237.41 185.914Z" fill="#82A9FF" fill-opacity="0.21"/>
<path d="M261.705 271.71C261.143 266.386 260.636 261.047 260.075 255.723C259.855 253.681 256.634 253.69 256.853 255.732C257.415 261.056 257.922 266.395 258.483 271.719C258.668 273.741 261.924 273.752 261.705 271.71Z" fill="#82A9FF" fill-opacity="0.21"/>
<path d="M267.592 260.624C261.887 262.19 256.183 263.755 250.458 265.356C248.451 265.926 249.275 269.019 251.297 268.504C257.002 266.938 262.706 265.373 268.431 263.772C270.438 263.202 269.634 260.074 267.592 260.624Z" fill="#82A9FF" fill-opacity="0.21"/>
<path d="M249.943 255.107C242.142 248.921 236.609 240.26 234.509 230.497C232.6 221.451 233.85 211.94 237.814 203.622C239.291 206.391 240.734 209.139 242.211 211.908C243.203 213.742 245.998 212.132 245.006 210.297C243.221 206.931 241.436 203.564 239.616 200.177C239.677 200.072 239.717 200.002 239.778 199.897C240.622 198.515 238.948 196.894 237.561 197.682C234.093 199.652 230.591 201.601 227.123 203.571C225.324 204.588 226.907 207.417 228.726 206.365C230.635 205.318 232.53 204.216 234.44 203.169C226.171 221.851 231.286 244.475 247.616 257.361C249.258 258.636 251.585 256.382 249.943 255.107Z" fill="#82A9FF" fill-opacity="0.21"/>
<path d="M223.314 180.299C208.635 182.15 195.365 190.281 187.016 202.562C185.844 204.269 188.641 205.883 189.813 204.177C197.429 192.922 209.876 185.249 223.316 183.524C225.342 183.245 225.375 180.04 223.314 180.299Z" fill="#82A9FF" fill-opacity="0.21"/>
<path d="M190.192 220.796C190.732 216.389 187.334 212.184 183.014 211.512C182.708 211.476 182.453 211.515 182.232 211.575C182.022 211.454 181.717 211.418 181.371 211.452C177.07 211.959 173.323 215.542 173.428 220.042C173.495 224.286 177.226 228.076 181.448 228.27C185.691 228.43 189.662 225.023 190.192 220.796ZM181.972 225.022C179.362 225.103 176.965 222.878 176.723 220.309C176.438 217.574 178.732 214.974 181.428 214.662C181.594 214.617 181.739 214.608 181.905 214.563C182.01 214.624 182.135 214.649 182.26 214.675C184.788 215.06 187.016 217.094 187.086 219.797C187.086 222.461 184.618 224.961 181.972 225.022Z" fill="#82A9FF" fill-opacity="0.21"/>
<path d="M205.087 226.966C205.072 226.023 204.328 225.454 203.447 225.365C201.99 225.225 200.533 225.085 199.056 224.979C198.175 224.891 197.468 225.792 197.454 226.624C197.468 227.567 198.212 228.137 199.093 228.225C200.55 228.365 202.007 228.506 203.484 228.611C204.331 228.679 205.092 227.764 205.087 226.966Z" fill="#82A9FF" fill-opacity="0.21"/>
<path d="M216.653 228.083C216.883 227.282 216.347 226.272 215.506 226.113C214.235 225.893 212.999 225.694 211.728 225.474C210.887 225.315 209.993 225.734 209.757 226.626C209.528 227.427 210.063 228.437 210.904 228.596C212.175 228.816 213.411 229.016 214.683 229.236C215.523 229.394 216.417 228.976 216.653 228.083Z" fill="#82A9FF" fill-opacity="0.21"/>
<path d="M240.889 225.582C240.638 224.643 239.788 224.34 238.896 224.432C237.216 224.677 235.502 224.902 233.822 225.147C232.965 225.26 232.463 226.371 232.669 227.145C232.919 228.083 233.769 228.387 234.662 228.295C236.341 228.05 238.056 227.825 239.735 227.58C240.613 227.432 241.095 226.355 240.889 225.582Z" fill="#82A9FF" fill-opacity="0.21"/>
<path d="M258.399 224.478C257.186 224.479 255.974 224.48 254.782 224.446C252.683 224.448 252.72 227.694 254.784 227.671C255.996 227.67 257.209 227.669 258.401 227.703C260.48 227.735 260.498 224.475 258.399 224.478Z" fill="#82A9FF" fill-opacity="0.21"/>
<path d="M276.332 223.851C275.119 223.852 273.907 223.853 272.715 223.819C270.636 223.787 270.653 227.067 272.717 227.044C273.93 227.043 275.142 227.042 276.334 227.077C278.413 227.109 278.411 223.883 276.332 223.851Z" fill="#82A9FF" fill-opacity="0.21"/>
<path d="M226.182 226.109C225.706 225.32 224.795 225.121 223.976 225.49C223.509 225.734 223.007 225.958 222.54 226.202C221.776 226.556 221.489 227.699 221.916 228.412C222.393 229.201 223.303 229.4 224.122 229.032C224.589 228.787 225.091 228.563 225.559 228.319C226.342 227.931 226.609 226.823 226.182 226.109Z" fill="#82A9FF" fill-opacity="0.21"/>
<path d="M189.425 256.192C188.308 251.668 187.191 247.145 186.053 242.657C185.543 240.634 182.432 241.501 182.907 243.504C184.025 248.027 185.142 252.55 186.279 257.039C186.789 259.062 189.935 258.215 189.425 256.192Z" fill="#82A9FF" fill-opacity="0.21"/>
<path d="M193.666 245.697C188.405 247.706 183.158 249.77 177.897 251.778C175.969 252.534 176.773 255.662 178.736 254.926C183.998 252.918 189.244 250.854 194.505 248.845C196.433 248.089 195.629 244.962 193.666 245.697Z" fill="#82A9FF" fill-opacity="0.21"/>
<path d="M220.937 268.778C219.437 264.594 217.922 260.356 216.422 256.172C215.727 254.229 212.601 255.041 213.277 257.019C214.777 261.203 216.291 265.441 217.791 269.625C218.507 271.533 221.632 270.721 220.937 268.778Z" fill="#82A9FF" fill-opacity="0.21"/>
<path d="M223.009 257.358C218.117 259.534 213.206 261.744 208.349 263.94C206.451 264.806 208.053 267.6 209.952 266.734C214.843 264.559 219.755 262.348 224.611 260.153C226.49 259.321 224.887 256.527 223.009 257.358Z" fill="#82A9FF" fill-opacity="0.21"/>
<path d="M207.405 172.656C205.793 168.828 204.202 164.965 202.59 161.138C201.784 159.224 198.989 160.835 199.795 162.748C201.407 166.576 202.999 170.439 204.611 174.266C205.382 176.16 208.176 174.549 207.405 172.656Z" fill="#82A9FF" fill-opacity="0.21"/>
<path d="M208.061 161.914C204.227 164.84 200.373 167.802 196.505 170.708C194.855 171.951 197.157 174.261 198.772 172.998C202.605 170.071 206.459 167.11 210.328 164.204C211.978 162.96 209.711 160.67 208.061 161.914Z" fill="#82A9FF" fill-opacity="0.21"/>
<path d="M294.361 224.915C292.157 224.858 289.953 224.8 287.749 224.742C285.69 224.675 285.672 227.936 287.751 227.968C289.955 228.025 292.159 228.083 294.363 228.141C296.457 228.228 296.454 225.003 294.361 224.915Z" fill="#82A9FF" fill-opacity="0.21"/>
<path d="M310.999 227.42C311.019 226.497 310.261 225.872 309.36 225.819L306.365 225.678C305.498 225.645 304.742 226.47 304.763 227.323C304.743 228.246 305.501 228.871 306.402 228.924C307.394 228.982 308.406 229.006 309.397 229.064C310.284 229.062 311.04 228.237 310.999 227.42Z" fill="#82A9FF" fill-opacity="0.21"/>
<path d="M343.494 230.714C344.513 225.882 341.208 221.031 336.561 219.796C336.366 219.73 336.186 219.72 335.985 219.744C335.825 219.698 335.7 219.673 335.54 219.627C330.738 219.145 325.959 222.74 325.356 227.578C324.759 232.326 328.249 237.098 332.959 237.902C337.599 238.665 342.507 235.331 343.494 230.714ZM333.248 234.657C330.265 234.01 328.074 230.783 328.567 227.75C329.146 224.486 332.433 222.506 335.562 222.818C335.562 222.818 335.562 222.818 335.597 222.838C335.632 222.858 335.702 222.898 335.757 222.883C338.714 223.656 340.986 226.743 340.398 229.861C339.789 233.014 336.32 235.31 333.248 234.657Z" fill="#82A9FF" fill-opacity="0.21"/>
</g>
<g clip-path="url(#clip2_20_558)">
<path d="M256.825 81.7204L256.826 81.7207C257.509 83.8245 257.877 86.088 257.877 88.4591V225.512C257.877 237.621 248.037 247.467 235.936 247.467H131.91C119.809 247.467 109.969 237.621 109.969 225.512V88.4591C109.969 76.3493 119.809 66.5034 131.91 66.5034H235.936C241.354 66.5034 246.353 68.5031 250.195 71.7685C253.248 74.4025 255.563 77.8253 256.825 81.7204Z" fill="white" stroke="black"/>
<path d="M248.206 83.1816H137.507C134.923 83.1816 132.771 80.9198 132.771 78.1195C132.771 75.3192 134.87 73.0575 137.507 73.0575H241.91C244.816 75.6962 247.022 79.1965 248.206 83.1816Z" fill="#2F70FE"/>
<path d="M161.947 215.387L139.229 192.654L132.798 199.089L155.516 221.822L161.947 215.387Z" fill="#6DED02"/>
<path d="M155.524 192.63L132.806 215.363L139.237 221.798L161.955 199.065L155.524 192.63Z" fill="#6DED02"/>
<path d="M203.308 173.971L180.59 151.238L174.159 157.673L196.877 180.406L203.308 173.971Z" fill="#6DED02"/>
<path d="M196.836 151.242L174.118 173.975L180.549 180.411L203.267 157.678L196.836 151.242Z" fill="#6DED02"/>
<path d="M149.831 150.981C141.597 150.981 134.977 157.658 134.977 165.844C134.977 174.083 141.651 180.707 149.831 180.707C158.064 180.707 164.684 174.029 164.684 165.844C164.684 157.605 158.011 150.981 149.831 150.981ZM149.831 174.029C145.31 174.029 141.651 170.367 141.651 165.844C141.651 161.32 145.31 157.658 149.831 157.658C154.351 157.658 158.011 161.32 158.011 165.844C158.011 170.367 154.351 174.029 149.831 174.029Z" fill="#6DED02"/>
<path d="M222.429 104.722C214.195 104.722 207.575 111.4 207.575 119.585C207.575 127.825 214.248 134.448 222.429 134.448C230.662 134.448 237.282 127.771 237.282 119.585C237.282 111.4 230.609 104.722 222.429 104.722ZM222.429 127.825C217.908 127.825 214.248 124.163 214.248 119.639C214.248 115.116 217.908 111.454 222.429 111.454C226.949 111.454 230.609 115.116 230.609 119.639C230.609 124.163 226.949 127.825 222.429 127.825Z" fill="#6DED02"/>
<path d="M232.438 147.911C229.801 144.896 227.164 141.88 224.527 138.918C223.882 138.218 222.751 138.487 222.267 139.187C221.944 139.672 221.675 140.103 221.352 140.587C221.191 140.695 220.975 140.857 220.868 141.018C219.2 143.603 217.585 146.242 215.917 148.827C214.948 150.388 217.37 151.789 218.392 150.281C219.415 148.719 220.437 147.157 221.46 145.596C224.474 159.489 226.949 174.622 219.953 187.654C216.993 193.147 212.473 197.993 206.553 200.255C199.557 202.948 191.592 201.924 184.972 198.693C177.654 195.139 171.841 189.215 167.052 182.699C165.975 181.245 163.5 182.645 164.576 184.153C173.617 196.432 187.663 207.525 203.916 204.025C218.5 200.847 226.249 185.769 227.218 171.929C227.918 161.966 225.819 152.004 223.72 142.311C225.98 144.842 228.187 147.427 230.447 149.958C231.631 151.304 233.622 149.257 232.438 147.911Z" fill="#6DED02"/>
</g>
<defs>
<clipPath id="clip0_20_558">
<rect width="187.415" height="129.502" fill="white" transform="translate(60.1737) scale(1.00069) rotate(27.6672)"/>
</clipPath>
<clipPath id="clip1_20_558">
<rect width="159.409" height="110.15" fill="white" transform="translate(208.852 145.69) scale(1.00069) rotate(30)"/>
</clipPath>
<clipPath id="clip2_20_558">
<rect width="148.806" height="181.785" fill="white" transform="translate(109.468 66.003) scale(1.00069)"/>
</clipPath>
</defs>
</svg>
