<svg width="388" height="242" viewBox="0 0 388 242" fill="none" xmlns="http://www.w3.org/2000/svg">
<path d="M200.345 209.377C177.718 211.718 21.6273 224.487 2.18066 230.346C-17.266 236.205 99.3469 233.92 114.275 233.094C129.203 232.267 140.844 235.522 123.78 239.814C106.715 244.107 190.84 241.194 237.278 237.759C283.716 234.324 239.202 230.471 266.508 227.645C293.848 224.789 389.117 217.464 366.231 213.93C343.345 210.395 399.083 205.689 385.977 203.071C372.905 200.451 240.813 205.161 200.345 209.377Z" fill="#00FF85" fill-opacity="0.08"/>
<g style="mix-blend-mode:luminosity">
<path d="M122.273 206.981C122.273 206.981 117.736 218.586 118.269 219.119C118.803 219.698 123.34 219.875 123.74 219.875C124.096 219.875 133.571 219.875 133.571 219.875C133.571 219.875 137.218 211.427 136.907 211.16C136.595 210.938 128.722 205.958 128.722 205.958L122.273 206.981Z" fill="#1631A4"/>
<path d="M131.925 211.116C131.925 211.116 124.763 212.094 118.581 208.181C118.581 208.181 127.922 154.335 128.411 151.356C128.9 148.377 127.922 110.582 127.922 110.582L142.2 106.225C142.2 106.225 145.269 164.295 145.091 163.762C144.958 163.273 131.925 211.116 131.925 211.116Z" fill="#1631A4"/>
<path d="M102.123 138.017C102.079 137.839 99.7655 120.187 115.245 117.519C119.648 116.763 123.429 117.519 126.587 119.742C132.414 123.833 133.748 131.481 133.793 131.836L131.169 132.281C131.08 131.703 128.544 117.919 115.645 120.142C102.701 122.365 104.614 137.039 104.703 137.661L102.123 138.017Z" fill="#01008A"/>
<path d="M147.137 13.2948C147.137 13.2948 145.936 21.7875 143.445 26.9009C140.954 32.0143 139.709 31.5252 139.086 31.5252C138.463 31.5252 126.409 24.5443 126.409 24.5443L123.207 13.6061L132.548 7.29218L140.376 9.07075L147.137 13.2948Z" fill="white"/>
<path d="M137.663 30.8583C137.663 30.8583 134.86 30.9917 134.06 35.6604C133.304 40.3292 133.304 40.3292 133.304 40.3292L122.362 36.861L127.655 23.6551L137.663 30.8583Z" fill="white"/>
<path d="M131.169 17.8303C131.169 17.8303 130.057 13.873 127.477 15.2069C124.897 16.5409 127.966 22.4101 129.745 21.921L127.121 24.9891L126.009 27.7458C126.009 27.7458 117.78 21.0317 118.536 13.7396C119.292 6.49193 123.651 6.62533 123.651 6.62533C123.651 6.62533 122.717 1.86765 128.767 0.222478C134.816 -1.4227 151.807 7.69247 156.078 5.33586C156.078 5.33586 150.918 20.098 143.134 15.3403C135.35 10.5826 131.169 17.8303 131.169 17.8303Z" fill="#231F20"/>
<path d="M122.362 36.8611L122.717 32.8593L136.106 36.8611L136.862 42.9527L122.362 36.8611Z" fill="#E5E5E6"/>
<path d="M159.636 81.503C159.636 81.503 164.217 80.2136 165.819 79.3688C167.42 78.4795 168.71 77.4123 169.466 77.9014C170.222 78.3905 167.242 80.8805 167.02 81.1029C166.797 81.3252 173.291 81.3696 174.181 81.503C175.071 81.6809 177.962 82.3923 177.962 82.9259C177.962 83.4595 174.359 89.8623 173.514 90.307C172.624 90.7516 163.639 90.5293 163.017 90.0402C162.394 89.5955 157.501 88.0838 157.501 88.0838C157.501 88.0838 159.369 81.592 159.636 81.503Z" fill="white"/>
<path d="M160.437 80.8804C160.437 80.8804 147.27 77.8124 146.514 74.2553C145.847 71.0983 142.2 77.3677 142.2 77.3677L143.045 85.9049C143.045 85.9049 150.295 89.3731 159.903 89.3731L161.638 86.1272C161.638 86.1272 162.483 81.4585 160.437 80.8804Z" fill="#CBCBCB"/>
<path d="M143.178 213.339C143.178 213.339 145.269 218.053 148.427 220.543C151.585 223.033 153.809 221.654 155.499 225.478C155.499 225.478 130.946 225.701 130.19 225.478C129.389 225.256 134.46 214.184 135.394 213.562C136.328 213.028 143.178 213.339 143.178 213.339Z" fill="#1631A4"/>
<path d="M130.101 213.251C130.101 213.251 137.93 216.719 145.135 215.741C145.135 215.741 156.522 153.757 156.3 151.445C156.078 149.133 146.826 89.3732 146.826 89.3732L121.917 95.2869C121.917 95.2869 125.119 118.23 127.21 118.586C129.3 118.942 130.501 120.276 130.501 120.276C130.501 120.276 138.819 155.002 138.508 158.07C138.196 161.138 130.101 213.251 130.101 213.251Z" fill="#01008A"/>
<path d="M149.005 89.5509C147.493 91.952 134.816 94.7088 127.299 95.4202C124.497 95.687 122.45 95.687 121.917 95.2423C119.915 93.6861 120.36 88.7506 120.049 87.8613C119.737 86.972 120.049 87.1943 120.271 86.5273C120.493 85.8604 120.716 84.5265 120.049 83.6816C119.693 83.237 119.337 72.8324 119.07 62.5167C118.803 52.4677 118.67 42.5077 118.714 41.8408C119.159 37.8835 122.362 36.8608 122.362 36.8608C122.362 36.8608 133.926 38.9506 136.862 42.9524C151.229 62.4722 151.096 86.2606 149.005 89.5509Z" fill="#6DED02"/>
<path d="M109.685 111.561C109.685 111.561 108.795 123.433 109.685 124.278C110.574 125.122 111.909 123.966 112.887 124.278C113.866 124.589 114.933 124.544 115.378 124.1C115.823 123.699 116.134 123.299 117.202 123.344C118.269 123.388 119.248 123.655 119.604 123.077C119.96 122.499 120.404 121.699 121.205 121.565C122.05 121.387 122.762 121.387 122.806 120.498C122.851 119.609 120.938 115.385 120.938 115.385L121.072 117.786C121.072 117.786 122.628 117.608 123.118 116.318C123.562 115.029 116.624 108.181 116.624 108.181L109.685 111.561Z" fill="white"/>
<path d="M109.551 113.072C109.551 113.072 116.134 109.782 118.091 109.782C118.091 109.782 118.358 106.581 116.801 106.225L108.217 109.649C108.217 109.649 108.217 112.183 109.551 113.072Z" fill="#FFD648"/>
<path d="M131.302 57.1812C127.655 63.9842 121.072 77.5458 123.607 80.1692C126.142 82.7926 130.012 81.5921 127.254 82.8815C124.497 84.171 121.961 84.7935 124.052 85.8162C126.142 86.7944 127.788 86.2608 125.698 88.2617C123.785 90.0847 124.319 94.4867 127.343 95.4649C124.541 95.7317 122.495 95.7317 121.961 95.2871C119.96 93.7308 120.404 88.7953 120.093 87.906C119.782 87.0167 120.093 87.239 120.315 86.5721C120.538 85.9051 120.76 84.5712 120.093 83.7264C119.737 83.2817 119.381 72.8771 119.114 62.5614L132.37 45.4871C132.37 45.4871 134.905 50.3337 131.302 57.1812Z" fill="#09D191"/>
<path d="M131.836 52.3345C130.635 55.358 129.078 58.4705 127.477 61.4941C127.477 61.4941 127.477 61.4941 127.432 61.5386C122.94 69.8978 117.869 77.8125 117.78 82.6591C117.647 89.3287 117.869 104.891 116.801 106.181C115.734 107.47 108.217 109.604 108.217 109.604C108.217 109.604 102.301 78.3016 102.879 75.945C103.413 73.5884 115.067 47.5768 118.759 41.8409C122.45 36.1495 136.373 40.9072 131.836 52.3345Z" fill="white"/>
<path d="M140.91 159.36L103.368 166.696C101.545 167.052 99.7655 165.852 99.4097 164.073L94.6503 140.151C94.2945 138.284 95.4954 136.505 97.3636 136.194L136.15 129.169C138.019 128.813 139.798 130.102 140.065 131.97L143.579 155.536C143.846 157.315 142.689 159.004 140.91 159.36Z" fill="white"/>
<path d="M140.065 131.97L139.131 145.398L101.144 152.779L94.6503 140.151C94.2945 138.284 95.4954 136.505 97.3636 136.194L136.15 129.169C138.019 128.813 139.798 130.102 140.065 131.97Z" fill="#E5E5E6"/>
<path d="M103.413 149.8L106.393 149.133L108.217 157.493L105.148 158.071L103.413 149.8Z" fill="#1631A4"/>
<path d="M132.503 144.109L135.483 143.442L137.307 151.801L134.193 152.379L132.503 144.109Z" fill="#1631A4"/>
<path d="M161.816 80.8803C161.816 80.8803 163.283 84.393 161.371 89.373H159.947C159.947 89.373 162.127 83.8594 160.481 80.8803H161.816Z" fill="#FFD648"/>
<path d="M127.477 61.5386C122.984 69.8979 117.913 77.8125 117.825 82.6591C117.691 89.3288 117.913 104.891 116.846 106.181C116.846 106.181 114.889 83.8152 113.199 82.0811C111.508 80.3915 111.108 79.3243 114.222 78.4795C117.246 77.7236 126.81 62.5613 127.477 61.5386Z" fill="#E5E5E6"/>
<path d="M218.083 204.624C218.083 204.624 217.994 209.293 211.367 213.206C204.739 217.163 203.316 217.386 203.093 219.92L229.381 218.675L236.587 212.895C236.587 212.895 235.831 207.114 235.475 206.892C235.119 206.67 221.063 205.158 221.063 205.158L218.083 204.624Z" fill="#1631A4"/>
<path d="M229.737 99.7779V209.782C229.737 209.782 225.778 210.316 221.508 209.782C219.062 209.471 216.526 208.76 214.614 207.426C214.614 207.426 211.545 156.514 211.767 153.98C211.989 151.445 219.017 99.022 219.373 98.9331C219.729 98.7997 229.737 99.7779 229.737 99.7779Z" fill="#1631A4"/>
<path d="M229.737 169.898V209.782C229.737 209.782 225.778 210.316 221.508 209.782C223.91 209.738 224.622 208.004 224.622 208.004C224.622 208.004 217.772 160.116 216.971 157.27C216.215 154.424 221.375 111.694 221.375 111.694L229.737 169.898Z" fill="#002F7A"/>
<path d="M182.227 85.2469L182.227 85.247L182.236 85.2478C182.434 85.2639 182.644 85.2812 182.862 85.2992C183.845 85.38 185.003 85.4754 186.039 85.5483C186.672 85.5929 187.262 85.6294 187.742 85.6492C188.204 85.6682 188.606 85.6741 188.833 85.6457L188.846 85.644L188.86 85.6415C189.481 85.5287 190.128 85.0969 190.391 84.5003C190.531 84.1826 190.563 83.807 190.397 83.4372C190.236 83.0788 189.919 82.791 189.489 82.5696C188.889 82.2608 188.729 81.825 188.742 81.5934C188.749 81.4791 188.792 81.4227 188.827 81.3969C188.859 81.3728 188.951 81.3262 189.155 81.3699C189.74 81.4951 191.36 82.0371 192.876 82.5649C193.625 82.8254 194.335 83.0778 194.858 83.2651C195.12 83.3587 195.335 83.436 195.484 83.4899L195.494 83.4937C195.497 83.501 195.499 83.5085 195.502 83.5162C195.555 83.672 195.63 83.8966 195.714 84.1695C195.883 84.7167 196.087 85.4516 196.236 86.2119C196.385 86.979 196.471 87.7406 196.421 88.3521C196.368 88.9895 196.183 89.3025 195.962 89.421L195.962 89.421L195.958 89.4235C195.896 89.4574 195.672 89.5448 195.264 89.6775C194.877 89.8037 194.365 89.958 193.769 90.1275C192.576 90.4663 191.052 90.8629 189.515 91.2138C187.976 91.5653 186.435 91.8682 185.203 92.0229C184.585 92.1004 184.059 92.1388 183.657 92.1307C183.456 92.1267 183.298 92.1112 183.181 92.0878C183.066 92.0648 183.022 92.0403 183.018 92.0376C182.907 91.9522 182.743 91.7231 182.556 91.2948C182.377 90.8833 182.206 90.3592 182.048 89.7756C181.733 88.6122 181.48 87.2669 181.303 86.2264C181.22 85.6567 181.669 85.1911 182.227 85.2469Z" fill="white" stroke="black"/>
<path d="M197.222 82.1255C197.222 82.1255 212.256 77.5457 212.746 76.8788C213.235 76.2118 224.622 45.3092 224.889 44.82C225.156 44.3309 227.469 46.154 227.469 46.154L221.019 83.2371L198.556 89.3732L197.222 82.1255Z" fill="#CBCBCB"/>
<path d="M194.642 82.659C194.642 82.659 196.11 84.9267 196.154 89.8623L198.556 89.3731C198.556 89.3731 198.69 83.1037 197.222 82.1255L194.642 82.659Z" fill="#1631A4"/>
<path d="M231.65 210.983C231.65 210.983 230.538 218.675 224.711 220.898C218.884 223.121 218.083 225.967 218.083 225.967C218.083 225.967 244.638 226.634 245.083 225.967C245.527 225.3 239.478 209.871 239.122 209.782C238.811 209.693 231.65 210.983 231.65 210.983Z" fill="#1631A4"/>
<path d="M241.346 211.872C241.346 211.872 232.628 213.073 226.49 211.872C226.49 211.872 217.994 159.671 218.217 154.825C218.439 149.978 221.419 111.65 221.419 111.65C221.419 111.65 219.418 110.538 219.64 106.937C219.862 103.29 221.508 95.6871 221.508 95.6871L246.061 104.402C246.061 104.402 243.971 122.366 239.79 122.455C239.79 122.455 232.094 153.491 232.139 155.136C232.183 156.825 241.346 211.872 241.346 211.872Z" fill="#01008A"/>
<path d="M250.868 66.8466L250.867 66.8481C250.647 67.7821 249.918 70.2079 249.014 73.2191C248.385 75.3164 247.67 77.6977 246.982 80.0567C246.147 82.9175 245.355 85.7371 244.813 87.9471C244.543 89.0509 244.332 90.012 244.21 90.754C244.149 91.1242 244.108 91.4505 244.095 91.7182C244.083 91.9607 244.087 92.2367 244.174 92.4515C244.276 92.7038 244.442 92.9814 244.623 93.2647C244.723 93.4195 244.839 93.5943 244.96 93.7774C245.058 93.9237 245.158 94.0754 245.257 94.2264C245.716 94.9312 246.221 95.7633 246.609 96.7294C247.349 98.5736 247.674 100.929 246.344 103.815C246.122 103.787 245.803 103.745 245.398 103.693C244.568 103.585 243.381 103.43 241.957 103.24C239.107 102.861 235.308 102.344 231.504 101.795C227.7 101.245 223.897 100.662 221.038 100.151C219.607 99.8948 218.423 99.6584 217.595 99.4545C217.179 99.3519 216.869 99.2613 216.668 99.1851C216.661 99.1824 216.654 99.1798 216.647 99.1772C216.65 99.145 216.654 99.11 216.657 99.0724C216.679 98.8563 216.712 98.5563 216.757 98.18C216.845 97.4278 216.978 96.3751 217.156 95.0885L217.156 95.0886L217.157 95.0822C217.389 93.2233 217.723 90.8564 218.1 88.1829C218.155 87.794 218.211 87.3987 218.268 86.9975L218.268 86.9968C219.335 79.3515 220.791 69.4846 222.152 61.2029C222.833 57.0615 223.489 53.3204 224.061 50.453C224.347 49.0188 224.611 47.8081 224.845 46.8773C225.084 45.927 225.28 45.3198 225.421 45.0529L225.422 45.0501C226.373 43.2117 227.529 42.3211 228.418 41.8845C228.865 41.6645 229.252 41.5563 229.522 41.5032C229.656 41.4767 229.762 41.4639 229.83 41.4578C229.864 41.4547 229.888 41.4533 229.903 41.4527L229.917 41.4522C229.917 41.4522 229.917 41.4522 229.917 41.4522C229.918 41.4522 229.918 41.4522 229.918 41.4522L229.92 41.4522L229.915 40.9516C229.92 41.4522 229.92 41.4522 229.92 41.4522L229.921 41.4522L229.923 41.4522L229.932 41.4521L229.969 41.4518L230.116 41.4507C230.244 41.4498 230.433 41.4488 230.674 41.4481C231.156 41.4468 231.847 41.447 232.684 41.4529C234.359 41.4647 236.613 41.4994 238.936 41.5908C241.261 41.6823 243.644 41.8303 245.579 42.0675C246.548 42.1862 247.393 42.326 248.058 42.4889C248.744 42.6571 249.161 42.8328 249.345 42.9822C249.406 43.0338 249.496 43.1472 249.603 43.3601C249.707 43.569 249.812 43.8432 249.914 44.1823C250.119 44.8604 250.301 45.753 250.459 46.8037C250.775 48.9024 250.988 51.5759 251.11 54.3021C251.232 57.0264 251.262 59.7917 251.215 62.0701C251.168 64.3708 251.042 66.119 250.868 66.8466ZM216.489 99.1043C216.489 99.1044 216.489 99.1047 216.49 99.1054C216.489 99.1047 216.489 99.1043 216.489 99.1043Z" fill="white" stroke="black"/>
<path d="M242.859 37.3944L241.346 42.5968L234.496 44.2419L231.027 42.9525L230.182 42.6412C230.182 42.6412 230.137 39.1285 230.137 37.2166C230.137 35.2602 227.78 35.1268 227.78 35.1268L233.829 30.2357L234.141 30.0134L240.635 29.7911L242.859 37.3944Z" fill="white"/>
<path d="M231.338 38.3729C231.383 40.5072 231.205 41.9745 231.071 42.9527L230.226 42.6415C230.226 42.6415 230.182 39.1288 230.182 37.2168C230.182 35.2604 227.824 35.127 227.824 35.127L233.874 30.2359C234.763 31.3031 236.009 32.9038 236.009 32.9038C236.009 32.9038 231.294 34.2822 231.338 38.3729Z" fill="#515BD4"/>
<path d="M230.982 42.2409L230.271 42.6411L231.338 43.7527L230.982 42.2409Z" fill="#E5E5E6"/>
<path d="M242.859 37.3947L230.982 42.2413L228.892 50.7339L243.704 41.3075L242.859 37.3947Z" fill="#CBCBCB"/>
<path d="M230.271 42.641L230.226 39.3507L227.513 42.063L230.271 42.641Z" fill="#E5E5E5"/>
<path d="M185.3 88.8497L185.312 88.8262L185.323 88.7986C185.323 88.7988 185.323 88.7987 185.323 88.7985L185.323 88.7985L185.323 88.7983L185.323 88.798L185.324 88.795L185.332 88.7757C185.34 88.7575 185.352 88.7291 185.369 88.6921C185.403 88.6179 185.455 88.5097 185.526 88.3801C185.67 88.1194 185.886 87.7804 186.178 87.4587C186.759 86.8179 187.6 86.2823 188.774 86.4872C189.892 86.6824 191.245 87.0818 192.532 87.4618C192.817 87.5459 193.099 87.629 193.374 87.7088C194.121 87.9253 194.825 88.1179 195.391 88.2244C195.674 88.2774 195.941 88.3128 196.173 88.3147C196.383 88.3165 196.66 88.2935 196.883 88.1407C196.987 88.069 197.112 87.9476 197.162 87.7598C197.214 87.5671 197.164 87.3974 197.103 87.2828C196.999 87.0859 196.807 86.9391 196.668 86.843C196.42 86.6709 196.062 86.4795 195.712 86.2921C195.632 86.2494 195.553 86.207 195.475 86.1651C195.029 85.9241 194.616 85.6867 194.335 85.4539C194.218 85.3574 194.144 85.2775 194.101 85.2164C194.23 85.1914 194.429 85.182 194.707 85.1988C195.312 85.2352 196.132 85.3834 197.036 85.5726C197.426 85.6541 197.838 85.7448 198.25 85.8354C198.766 85.9488 199.281 86.062 199.749 86.1568C200.593 86.3276 201.394 86.4627 201.948 86.4501C202.545 86.4365 203.205 86.3974 203.828 86.3605C204.226 86.3369 204.608 86.3143 204.949 86.2997C205.402 86.2804 205.789 86.2745 206.084 86.2929C206.212 86.3009 206.312 86.313 206.387 86.3274C206.392 86.3623 206.397 86.4038 206.401 86.4524C206.421 86.6797 206.428 87.0007 206.424 87.3936C206.415 88.1757 206.363 89.193 206.297 90.2076C206.23 91.2204 206.15 92.2229 206.086 92.9728C206.054 93.3476 206.027 93.659 206.007 93.8765C206.006 93.8894 206.005 93.902 206.003 93.9142L205.912 93.9508C205.673 94.0468 205.33 94.1839 204.915 94.3486C204.085 94.6781 202.965 95.1177 201.809 95.5585C200.651 95.9997 199.461 96.4405 198.487 96.7733C197.999 96.9398 197.571 97.0776 197.231 97.1745C196.872 97.2767 196.661 97.3183 196.581 97.3213C196.503 97.3242 196.283 97.2964 195.898 97.214C195.535 97.136 195.073 97.0205 194.545 96.8771C193.49 96.5907 192.188 96.1984 190.914 95.7887C189.64 95.3789 188.4 94.9537 187.468 94.602C187.001 94.4256 186.619 94.2706 186.351 94.1473C186.229 94.0911 186.139 94.0455 186.079 94.0109C186.065 93.9648 186.047 93.9052 186.027 93.8323C185.984 93.6728 185.932 93.4625 185.876 93.2157C185.765 92.7225 185.64 92.0964 185.533 91.4632C185.426 90.8282 185.339 90.1958 185.299 89.687C185.279 89.4317 185.273 89.2184 185.28 89.0565C185.286 88.9026 185.304 88.8468 185.302 88.8463C185.302 88.8462 185.301 88.8474 185.3 88.8497ZM194.058 85.1351C194.058 85.1352 194.058 85.1365 194.058 85.1388C194.058 85.1362 194.058 85.135 194.058 85.1351ZM193.996 85.246C193.993 85.2482 193.991 85.2491 193.991 85.249C193.991 85.2489 193.992 85.2479 193.996 85.246Z" fill="white" stroke="black"/>
<path d="M238.099 91.285C235.608 90.707 222.487 93.6416 216.66 95.02C216.927 92.8857 217.327 90.0845 217.772 86.9275L242.369 62.1165L250.331 59.3597C250.331 59.3597 242.369 82.1698 239.701 84.1262C237.076 86.0827 238.144 88.0836 239.701 88.3059C241.213 88.5727 241.346 92.0409 238.099 91.285Z" fill="#E5E5E5"/>
<path d="M210.857 93.2095L211.016 85.046L211.331 84.9199C211.728 84.761 212.296 84.5335 212.977 84.2593C214.341 83.7109 216.161 82.9755 217.989 82.2274C219.816 81.4796 221.653 80.7181 223.048 80.1182C223.745 79.8185 224.335 79.5572 224.761 79.3573C224.973 79.2578 225.15 79.1703 225.281 79.099C225.346 79.0639 225.408 79.028 225.461 78.993C225.487 78.9758 225.518 78.9534 225.549 78.9269C225.571 78.9085 225.634 78.8538 225.682 78.7669C225.707 78.7222 225.735 78.6529 225.754 78.6073L225.754 78.6059C225.78 78.5442 225.813 78.461 225.853 78.3587C225.933 78.1537 226.044 77.8657 226.181 77.5065C226.455 76.7878 226.837 75.7794 227.293 74.5703C227.507 74.0048 227.737 73.3953 227.98 72.7507C228.777 70.6382 229.716 68.1495 230.683 65.6011C233.213 58.9338 235.916 51.903 236.772 50.1039C237.564 48.439 239.269 47.1863 241.182 46.4969C243.102 45.8053 245.114 45.7233 246.452 46.2624C247.066 46.5096 247.699 47.0904 248.282 47.9686C248.859 48.8391 249.358 49.9604 249.723 51.2175C250.453 53.7387 250.618 56.7263 249.853 59.2121C249.472 60.4397 248.284 62.7419 246.668 65.5615C245.062 68.363 243.062 71.6259 241.09 74.7494C239.118 77.8722 237.177 80.8522 235.691 83.0868C234.947 84.2043 234.318 85.1341 233.857 85.8016C233.625 86.1356 233.438 86.4019 233.299 86.5924C233.229 86.6879 233.174 86.7617 233.133 86.8144C233.117 86.8353 233.105 86.8501 233.097 86.8601C233.09 86.8634 233.083 86.8674 233.073 86.8721C233.025 86.8959 232.955 86.9271 232.858 86.9658C232.666 87.043 232.398 87.1395 232.06 87.2532C231.386 87.4801 230.458 87.7675 229.36 88.0942C227.165 88.7472 224.307 89.5521 221.469 90.3355C218.633 91.1188 215.819 91.8799 213.714 92.4453C212.662 92.728 211.787 92.9617 211.176 93.1247C211.06 93.1555 210.953 93.1839 210.857 93.2095ZM233.086 86.8741C233.087 86.8733 233.087 86.8726 233.088 86.8718L233.086 86.8741Z" fill="white" stroke="black"/>
<path d="M206.074 85.8159C206.074 85.8159 206.563 89.8177 205.495 94.6643L210.566 93.775C210.566 93.775 212.612 87.9058 210.522 84.7043L206.074 85.8159Z" fill="#1631A4"/>
<path d="M181.832 64.4731C181.787 64.2508 181.743 64.0729 181.698 63.9395C181.743 64.1174 181.787 64.2508 181.832 64.4731Z" fill="#F9A826"/>
<path d="M223.821 17.0743C223.821 17.0743 223.643 31.5251 223.821 33.4371C223.999 35.3491 225.289 35.6603 225.511 35.7048C225.778 35.7492 241.124 31.4807 241.124 31.4807L245.705 23.655L239.122 13.695L227.824 10.8048C227.869 10.8048 223.821 14.4953 223.821 17.0743Z" fill="white"/>
<path d="M224.844 15.0292C224.844 15.0292 226.712 13.5619 227.513 15.0292C228.314 16.4965 228.803 20.187 233.118 20.2759C237.432 20.3649 237.388 23.9665 237.388 23.9665C237.388 23.9665 234.496 9.29328 234.185 9.07096C233.918 8.84864 224.622 7.69257 224.622 7.69257L224.844 15.0292Z" fill="#CBCBCB"/>
<path d="M237.343 23.9662C237.343 23.9662 239.078 21.2983 240.813 22.4544C242.547 23.6104 240.323 28.9017 236.898 29.7465C236.898 29.7465 238.055 35.5269 238.277 35.4379C238.5 35.349 244.06 33.6594 244.06 33.6594C244.06 33.6594 251.71 25.1667 250.109 18.008C248.508 10.8492 232.094 2.75672 228.403 3.29029C224.711 3.82386 224.044 7.95904 224.044 7.95904C224.044 7.95904 220.841 7.87011 220.307 9.42636C219.773 11.0271 217.861 19.5197 223.821 21.2094C223.821 21.2094 223.732 16.0071 224.844 14.9399C224.844 14.9399 225.734 12.8946 226.89 13.3837C228.047 13.8728 228.091 20.0533 233.118 20.1867C238.144 20.409 237.343 23.9662 237.343 23.9662Z" fill="#231F20"/>
<path d="M240.457 23.9663C240.457 23.9663 238.544 22.6324 237.743 26.7676C237.699 26.7676 238.766 23.9219 240.457 23.9663Z" fill="#515BD4"/>
</g>
</svg>
